<mxfile host="app.diagrams.net" agent="Mozilla/5.0 (Windows NT 10.0; Win64; x64) AppleWebKit/537.36 (KHTML, like Gecko) Chrome/127.0.0.0 Safari/537.36" version="24.7.7">
  <diagram id="C5RBs43oDa-KdzZeNtuy" name="Page-1">
    <mxGraphModel dx="2515" dy="1112" grid="1" gridSize="10" guides="1" tooltips="1" connect="1" arrows="1" fold="1" page="1" pageScale="1" pageWidth="827" pageHeight="1169" math="0" shadow="0">
      <root>
        <mxCell id="WIyWlLk6GJQsqaUBKTNV-0" />
        <mxCell id="WIyWlLk6GJQsqaUBKTNV-1" parent="WIyWlLk6GJQsqaUBKTNV-0" />
        <mxCell id="1N1WW0Ei132FlfIsPOHH-3" value="" style="edgeStyle=orthogonalEdgeStyle;rounded=0;orthogonalLoop=1;jettySize=auto;html=1;" edge="1" parent="WIyWlLk6GJQsqaUBKTNV-1" source="1N1WW0Ei132FlfIsPOHH-1" target="1N1WW0Ei132FlfIsPOHH-2">
          <mxGeometry relative="1" as="geometry" />
        </mxCell>
        <mxCell id="1N1WW0Ei132FlfIsPOHH-1" value="检查任务是否可执行" style="ellipse;whiteSpace=wrap;html=1;" vertex="1" parent="WIyWlLk6GJQsqaUBKTNV-1">
          <mxGeometry x="-15" y="9" width="90" height="40" as="geometry" />
        </mxCell>
        <mxCell id="1N1WW0Ei132FlfIsPOHH-5" value="" style="edgeStyle=orthogonalEdgeStyle;rounded=0;orthogonalLoop=1;jettySize=auto;html=1;" edge="1" parent="WIyWlLk6GJQsqaUBKTNV-1" source="1N1WW0Ei132FlfIsPOHH-2" target="1N1WW0Ei132FlfIsPOHH-4">
          <mxGeometry relative="1" as="geometry" />
        </mxCell>
        <mxCell id="1N1WW0Ei132FlfIsPOHH-42" value="" style="edgeStyle=orthogonalEdgeStyle;rounded=0;orthogonalLoop=1;jettySize=auto;html=1;entryX=1;entryY=0.5;entryDx=0;entryDy=0;" edge="1" parent="WIyWlLk6GJQsqaUBKTNV-1" source="1N1WW0Ei132FlfIsPOHH-2" target="1N1WW0Ei132FlfIsPOHH-43">
          <mxGeometry relative="1" as="geometry">
            <mxPoint x="-120" y="134" as="targetPoint" />
          </mxGeometry>
        </mxCell>
        <mxCell id="1N1WW0Ei132FlfIsPOHH-2" value="是否使用代理池？" style="rhombus;whiteSpace=wrap;html=1;" vertex="1" parent="WIyWlLk6GJQsqaUBKTNV-1">
          <mxGeometry x="-20" y="99" width="100" height="70" as="geometry" />
        </mxCell>
        <mxCell id="1N1WW0Ei132FlfIsPOHH-11" value="" style="edgeStyle=orthogonalEdgeStyle;rounded=0;orthogonalLoop=1;jettySize=auto;html=1;" edge="1" parent="WIyWlLk6GJQsqaUBKTNV-1" source="1N1WW0Ei132FlfIsPOHH-4" target="1N1WW0Ei132FlfIsPOHH-10">
          <mxGeometry relative="1" as="geometry" />
        </mxCell>
        <mxCell id="1N1WW0Ei132FlfIsPOHH-4" value="取代理" style="rounded=0;whiteSpace=wrap;html=1;" vertex="1" parent="WIyWlLk6GJQsqaUBKTNV-1">
          <mxGeometry x="170" y="109" width="100" height="50" as="geometry" />
        </mxCell>
        <mxCell id="1N1WW0Ei132FlfIsPOHH-6" value="是" style="text;html=1;align=center;verticalAlign=middle;resizable=0;points=[];autosize=1;strokeColor=none;fillColor=none;" vertex="1" parent="WIyWlLk6GJQsqaUBKTNV-1">
          <mxGeometry x="100" y="104" width="40" height="30" as="geometry" />
        </mxCell>
        <mxCell id="1N1WW0Ei132FlfIsPOHH-27" style="edgeStyle=orthogonalEdgeStyle;rounded=0;orthogonalLoop=1;jettySize=auto;html=1;exitX=1;exitY=0.5;exitDx=0;exitDy=0;entryX=0;entryY=0.5;entryDx=0;entryDy=0;" edge="1" parent="WIyWlLk6GJQsqaUBKTNV-1" source="1N1WW0Ei132FlfIsPOHH-10" target="1N1WW0Ei132FlfIsPOHH-12">
          <mxGeometry relative="1" as="geometry" />
        </mxCell>
        <mxCell id="1N1WW0Ei132FlfIsPOHH-83" style="edgeStyle=orthogonalEdgeStyle;rounded=0;orthogonalLoop=1;jettySize=auto;html=1;exitX=0.5;exitY=1;exitDx=0;exitDy=0;entryX=0.5;entryY=0;entryDx=0;entryDy=0;" edge="1" parent="WIyWlLk6GJQsqaUBKTNV-1" source="1N1WW0Ei132FlfIsPOHH-10" target="1N1WW0Ei132FlfIsPOHH-78">
          <mxGeometry relative="1" as="geometry" />
        </mxCell>
        <mxCell id="1N1WW0Ei132FlfIsPOHH-10" value="正常请求，测试站点连通性，网络可达？" style="rhombus;whiteSpace=wrap;html=1;rounded=0;" vertex="1" parent="WIyWlLk6GJQsqaUBKTNV-1">
          <mxGeometry x="160" y="199" width="110" height="90" as="geometry" />
        </mxCell>
        <mxCell id="1N1WW0Ei132FlfIsPOHH-29" value="" style="edgeStyle=orthogonalEdgeStyle;rounded=0;orthogonalLoop=1;jettySize=auto;html=1;" edge="1" parent="WIyWlLk6GJQsqaUBKTNV-1" source="1N1WW0Ei132FlfIsPOHH-12" target="1N1WW0Ei132FlfIsPOHH-28">
          <mxGeometry relative="1" as="geometry" />
        </mxCell>
        <mxCell id="1N1WW0Ei132FlfIsPOHH-12" value="请求失败，切换代理" style="whiteSpace=wrap;html=1;rounded=0;" vertex="1" parent="WIyWlLk6GJQsqaUBKTNV-1">
          <mxGeometry x="380" y="214" width="120" height="60" as="geometry" />
        </mxCell>
        <mxCell id="1N1WW0Ei132FlfIsPOHH-14" value="否" style="text;html=1;align=center;verticalAlign=middle;resizable=0;points=[];autosize=1;strokeColor=none;fillColor=none;" vertex="1" parent="WIyWlLk6GJQsqaUBKTNV-1">
          <mxGeometry x="290" y="209" width="40" height="30" as="geometry" />
        </mxCell>
        <mxCell id="1N1WW0Ei132FlfIsPOHH-17" value="否" style="text;html=1;align=center;verticalAlign=middle;resizable=0;points=[];autosize=1;strokeColor=none;fillColor=none;" vertex="1" parent="WIyWlLk6GJQsqaUBKTNV-1">
          <mxGeometry x="-70" y="104" width="40" height="30" as="geometry" />
        </mxCell>
        <mxCell id="1N1WW0Ei132FlfIsPOHH-26" value="是" style="text;html=1;align=center;verticalAlign=middle;resizable=0;points=[];autosize=1;strokeColor=none;fillColor=none;" vertex="1" parent="WIyWlLk6GJQsqaUBKTNV-1">
          <mxGeometry x="230" y="297" width="40" height="30" as="geometry" />
        </mxCell>
        <mxCell id="1N1WW0Ei132FlfIsPOHH-30" style="edgeStyle=orthogonalEdgeStyle;rounded=0;orthogonalLoop=1;jettySize=auto;html=1;exitX=0;exitY=0.5;exitDx=0;exitDy=0;entryX=1;entryY=0.5;entryDx=0;entryDy=0;" edge="1" parent="WIyWlLk6GJQsqaUBKTNV-1" source="1N1WW0Ei132FlfIsPOHH-28" target="1N1WW0Ei132FlfIsPOHH-4">
          <mxGeometry relative="1" as="geometry" />
        </mxCell>
        <mxCell id="1N1WW0Ei132FlfIsPOHH-32" style="edgeStyle=orthogonalEdgeStyle;rounded=0;orthogonalLoop=1;jettySize=auto;html=1;exitX=1;exitY=0.5;exitDx=0;exitDy=0;entryX=1;entryY=0.5;entryDx=0;entryDy=0;" edge="1" parent="WIyWlLk6GJQsqaUBKTNV-1" source="1N1WW0Ei132FlfIsPOHH-28" target="1N1WW0Ei132FlfIsPOHH-35">
          <mxGeometry relative="1" as="geometry">
            <mxPoint x="710" y="139" as="targetPoint" />
          </mxGeometry>
        </mxCell>
        <mxCell id="1N1WW0Ei132FlfIsPOHH-28" value="代理是否使用完" style="rhombus;whiteSpace=wrap;html=1;rounded=0;" vertex="1" parent="WIyWlLk6GJQsqaUBKTNV-1">
          <mxGeometry x="390" y="104" width="110" height="60" as="geometry" />
        </mxCell>
        <mxCell id="1N1WW0Ei132FlfIsPOHH-31" value="否" style="text;html=1;align=center;verticalAlign=middle;resizable=0;points=[];autosize=1;strokeColor=none;fillColor=none;" vertex="1" parent="WIyWlLk6GJQsqaUBKTNV-1">
          <mxGeometry x="320" y="104" width="40" height="30" as="geometry" />
        </mxCell>
        <mxCell id="1N1WW0Ei132FlfIsPOHH-33" value="是" style="text;html=1;align=center;verticalAlign=middle;resizable=0;points=[];autosize=1;strokeColor=none;fillColor=none;" vertex="1" parent="WIyWlLk6GJQsqaUBKTNV-1">
          <mxGeometry x="520" y="169" width="40" height="30" as="geometry" />
        </mxCell>
        <mxCell id="1N1WW0Ei132FlfIsPOHH-35" value="不可执行" style="ellipse;whiteSpace=wrap;html=1;fillColor=#f8cecc;strokeColor=#b85450;" vertex="1" parent="WIyWlLk6GJQsqaUBKTNV-1">
          <mxGeometry x="-5" y="759" width="80" height="45" as="geometry" />
        </mxCell>
        <mxCell id="1N1WW0Ei132FlfIsPOHH-62" style="edgeStyle=orthogonalEdgeStyle;rounded=0;orthogonalLoop=1;jettySize=auto;html=1;exitX=0;exitY=0.5;exitDx=0;exitDy=0;entryX=1;entryY=0.5;entryDx=0;entryDy=0;" edge="1" parent="WIyWlLk6GJQsqaUBKTNV-1" source="1N1WW0Ei132FlfIsPOHH-43" target="1N1WW0Ei132FlfIsPOHH-56">
          <mxGeometry relative="1" as="geometry" />
        </mxCell>
        <mxCell id="1N1WW0Ei132FlfIsPOHH-80" style="edgeStyle=orthogonalEdgeStyle;rounded=0;orthogonalLoop=1;jettySize=auto;html=1;exitX=0.5;exitY=1;exitDx=0;exitDy=0;entryX=0.5;entryY=0;entryDx=0;entryDy=0;" edge="1" parent="WIyWlLk6GJQsqaUBKTNV-1" source="1N1WW0Ei132FlfIsPOHH-43" target="1N1WW0Ei132FlfIsPOHH-78">
          <mxGeometry relative="1" as="geometry">
            <Array as="points">
              <mxPoint x="-165" y="309" />
              <mxPoint x="30" y="309" />
            </Array>
          </mxGeometry>
        </mxCell>
        <mxCell id="1N1WW0Ei132FlfIsPOHH-43" value="正常请求，测试站点连通性，网络可达？" style="rhombus;whiteSpace=wrap;html=1;rounded=0;" vertex="1" parent="WIyWlLk6GJQsqaUBKTNV-1">
          <mxGeometry x="-220" y="89" width="110" height="90" as="geometry" />
        </mxCell>
        <mxCell id="1N1WW0Ei132FlfIsPOHH-44" value="是" style="text;html=1;align=center;verticalAlign=middle;resizable=0;points=[];autosize=1;strokeColor=none;fillColor=none;" vertex="1" parent="WIyWlLk6GJQsqaUBKTNV-1">
          <mxGeometry x="-160" y="199" width="40" height="30" as="geometry" />
        </mxCell>
        <mxCell id="1N1WW0Ei132FlfIsPOHH-47" value="否" style="text;html=1;align=center;verticalAlign=middle;resizable=0;points=[];autosize=1;strokeColor=none;fillColor=none;" vertex="1" parent="WIyWlLk6GJQsqaUBKTNV-1">
          <mxGeometry x="-260" y="104" width="40" height="30" as="geometry" />
        </mxCell>
        <mxCell id="1N1WW0Ei132FlfIsPOHH-58" style="edgeStyle=orthogonalEdgeStyle;rounded=0;orthogonalLoop=1;jettySize=auto;html=1;exitX=0;exitY=0.5;exitDx=0;exitDy=0;entryX=0.5;entryY=0;entryDx=0;entryDy=0;" edge="1" parent="WIyWlLk6GJQsqaUBKTNV-1" source="1N1WW0Ei132FlfIsPOHH-56" target="1N1WW0Ei132FlfIsPOHH-43">
          <mxGeometry relative="1" as="geometry" />
        </mxCell>
        <mxCell id="1N1WW0Ei132FlfIsPOHH-64" value="否" style="edgeLabel;html=1;align=center;verticalAlign=middle;resizable=0;points=[];" vertex="1" connectable="0" parent="1N1WW0Ei132FlfIsPOHH-58">
          <mxGeometry x="-0.6086" y="-9" relative="1" as="geometry">
            <mxPoint as="offset" />
          </mxGeometry>
        </mxCell>
        <mxCell id="1N1WW0Ei132FlfIsPOHH-65" style="edgeStyle=orthogonalEdgeStyle;rounded=0;orthogonalLoop=1;jettySize=auto;html=1;exitX=0.5;exitY=1;exitDx=0;exitDy=0;entryX=0;entryY=0.5;entryDx=0;entryDy=0;" edge="1" parent="WIyWlLk6GJQsqaUBKTNV-1" source="1N1WW0Ei132FlfIsPOHH-56" target="1N1WW0Ei132FlfIsPOHH-35">
          <mxGeometry relative="1" as="geometry">
            <mxPoint x="-300" y="299" as="targetPoint" />
          </mxGeometry>
        </mxCell>
        <mxCell id="1N1WW0Ei132FlfIsPOHH-56" value="重试3次，是否超过3次" style="rhombus;whiteSpace=wrap;html=1;" vertex="1" parent="WIyWlLk6GJQsqaUBKTNV-1">
          <mxGeometry x="-350" y="99" width="80" height="70" as="geometry" />
        </mxCell>
        <mxCell id="1N1WW0Ei132FlfIsPOHH-66" value="是" style="text;html=1;align=center;verticalAlign=middle;resizable=0;points=[];autosize=1;strokeColor=none;fillColor=none;" vertex="1" parent="WIyWlLk6GJQsqaUBKTNV-1">
          <mxGeometry x="-310" y="179" width="40" height="30" as="geometry" />
        </mxCell>
        <mxCell id="1N1WW0Ei132FlfIsPOHH-72" style="edgeStyle=orthogonalEdgeStyle;rounded=0;orthogonalLoop=1;jettySize=auto;html=1;exitX=0.5;exitY=1;exitDx=0;exitDy=0;entryX=0.5;entryY=0;entryDx=0;entryDy=0;" edge="1" parent="WIyWlLk6GJQsqaUBKTNV-1" source="1N1WW0Ei132FlfIsPOHH-70" target="1N1WW0Ei132FlfIsPOHH-71">
          <mxGeometry relative="1" as="geometry" />
        </mxCell>
        <mxCell id="1N1WW0Ei132FlfIsPOHH-70" value="开始任务" style="ellipse;whiteSpace=wrap;html=1;" vertex="1" parent="WIyWlLk6GJQsqaUBKTNV-1">
          <mxGeometry x="1710" y="9" width="100" height="60" as="geometry" />
        </mxCell>
        <mxCell id="1N1WW0Ei132FlfIsPOHH-73" style="edgeStyle=orthogonalEdgeStyle;rounded=0;orthogonalLoop=1;jettySize=auto;html=1;exitX=0;exitY=0.5;exitDx=0;exitDy=0;entryX=1;entryY=0.5;entryDx=0;entryDy=0;" edge="1" parent="WIyWlLk6GJQsqaUBKTNV-1" source="1N1WW0Ei132FlfIsPOHH-71" target="1N1WW0Ei132FlfIsPOHH-76">
          <mxGeometry relative="1" as="geometry">
            <mxPoint x="1600" y="191.25" as="targetPoint" />
          </mxGeometry>
        </mxCell>
        <mxCell id="1N1WW0Ei132FlfIsPOHH-98" style="edgeStyle=orthogonalEdgeStyle;rounded=0;orthogonalLoop=1;jettySize=auto;html=1;exitX=0.5;exitY=1;exitDx=0;exitDy=0;entryX=0.5;entryY=0;entryDx=0;entryDy=0;" edge="1" parent="WIyWlLk6GJQsqaUBKTNV-1" source="1N1WW0Ei132FlfIsPOHH-71" target="1N1WW0Ei132FlfIsPOHH-100">
          <mxGeometry relative="1" as="geometry">
            <mxPoint x="1660" y="289" as="targetPoint" />
          </mxGeometry>
        </mxCell>
        <mxCell id="1N1WW0Ei132FlfIsPOHH-102" style="edgeStyle=orthogonalEdgeStyle;rounded=0;orthogonalLoop=1;jettySize=auto;html=1;exitX=0.5;exitY=1;exitDx=0;exitDy=0;entryX=0.5;entryY=0;entryDx=0;entryDy=0;" edge="1" parent="WIyWlLk6GJQsqaUBKTNV-1" source="1N1WW0Ei132FlfIsPOHH-71" target="1N1WW0Ei132FlfIsPOHH-101">
          <mxGeometry relative="1" as="geometry" />
        </mxCell>
        <mxCell id="1N1WW0Ei132FlfIsPOHH-103" style="edgeStyle=orthogonalEdgeStyle;rounded=0;orthogonalLoop=1;jettySize=auto;html=1;exitX=0.5;exitY=1;exitDx=0;exitDy=0;entryX=0.5;entryY=0;entryDx=0;entryDy=0;" edge="1" parent="WIyWlLk6GJQsqaUBKTNV-1" source="1N1WW0Ei132FlfIsPOHH-71" target="1N1WW0Ei132FlfIsPOHH-99">
          <mxGeometry relative="1" as="geometry" />
        </mxCell>
        <mxCell id="1N1WW0Ei132FlfIsPOHH-71" value="检查任务是否可执行" style="rhombus;whiteSpace=wrap;html=1;" vertex="1" parent="WIyWlLk6GJQsqaUBKTNV-1">
          <mxGeometry x="1697.5" y="144" width="125" height="85" as="geometry" />
        </mxCell>
        <mxCell id="1N1WW0Ei132FlfIsPOHH-74" value="否" style="text;html=1;align=center;verticalAlign=middle;resizable=0;points=[];autosize=1;strokeColor=none;fillColor=none;" vertex="1" parent="WIyWlLk6GJQsqaUBKTNV-1">
          <mxGeometry x="1650" y="159" width="40" height="30" as="geometry" />
        </mxCell>
        <mxCell id="1N1WW0Ei132FlfIsPOHH-76" value="结束" style="ellipse;whiteSpace=wrap;html=1;" vertex="1" parent="WIyWlLk6GJQsqaUBKTNV-1">
          <mxGeometry x="1520" y="164" width="80" height="55" as="geometry" />
        </mxCell>
        <mxCell id="1N1WW0Ei132FlfIsPOHH-86" style="edgeStyle=orthogonalEdgeStyle;rounded=0;orthogonalLoop=1;jettySize=auto;html=1;exitX=0.5;exitY=1;exitDx=0;exitDy=0;entryX=0.5;entryY=0;entryDx=0;entryDy=0;" edge="1" parent="WIyWlLk6GJQsqaUBKTNV-1" source="1N1WW0Ei132FlfIsPOHH-78" target="1N1WW0Ei132FlfIsPOHH-88">
          <mxGeometry relative="1" as="geometry">
            <mxPoint x="29.789473684210634" y="469" as="targetPoint" />
          </mxGeometry>
        </mxCell>
        <mxCell id="1N1WW0Ei132FlfIsPOHH-92" style="edgeStyle=orthogonalEdgeStyle;rounded=0;orthogonalLoop=1;jettySize=auto;html=1;exitX=0;exitY=0.5;exitDx=0;exitDy=0;entryX=0;entryY=0.5;entryDx=0;entryDy=0;" edge="1" parent="WIyWlLk6GJQsqaUBKTNV-1" source="1N1WW0Ei132FlfIsPOHH-78" target="1N1WW0Ei132FlfIsPOHH-35">
          <mxGeometry relative="1" as="geometry">
            <Array as="points">
              <mxPoint x="-130" y="368" />
              <mxPoint x="-130" y="782" />
            </Array>
          </mxGeometry>
        </mxCell>
        <mxCell id="1N1WW0Ei132FlfIsPOHH-78" value="payload是否为空" style="rhombus;whiteSpace=wrap;html=1;" vertex="1" parent="WIyWlLk6GJQsqaUBKTNV-1">
          <mxGeometry x="-25" y="329" width="110" height="77" as="geometry" />
        </mxCell>
        <mxCell id="1N1WW0Ei132FlfIsPOHH-85" value="是" style="text;html=1;align=center;verticalAlign=middle;resizable=0;points=[];autosize=1;strokeColor=none;fillColor=none;" vertex="1" parent="WIyWlLk6GJQsqaUBKTNV-1">
          <mxGeometry x="-90" y="329" width="40" height="30" as="geometry" />
        </mxCell>
        <mxCell id="1N1WW0Ei132FlfIsPOHH-87" value="否" style="text;html=1;align=center;verticalAlign=middle;resizable=0;points=[];autosize=1;strokeColor=none;fillColor=none;" vertex="1" parent="WIyWlLk6GJQsqaUBKTNV-1">
          <mxGeometry x="30" y="417" width="40" height="30" as="geometry" />
        </mxCell>
        <mxCell id="1N1WW0Ei132FlfIsPOHH-89" style="edgeStyle=orthogonalEdgeStyle;rounded=0;orthogonalLoop=1;jettySize=auto;html=1;exitX=0.5;exitY=1;exitDx=0;exitDy=0;entryX=0.5;entryY=0;entryDx=0;entryDy=0;" edge="1" parent="WIyWlLk6GJQsqaUBKTNV-1" source="1N1WW0Ei132FlfIsPOHH-88" target="1N1WW0Ei132FlfIsPOHH-90">
          <mxGeometry relative="1" as="geometry">
            <mxPoint x="29.789473684210634" y="599" as="targetPoint" />
          </mxGeometry>
        </mxCell>
        <mxCell id="1N1WW0Ei132FlfIsPOHH-91" style="edgeStyle=orthogonalEdgeStyle;rounded=0;orthogonalLoop=1;jettySize=auto;html=1;exitX=0;exitY=0.5;exitDx=0;exitDy=0;entryX=0;entryY=0.5;entryDx=0;entryDy=0;" edge="1" parent="WIyWlLk6GJQsqaUBKTNV-1" source="1N1WW0Ei132FlfIsPOHH-88" target="1N1WW0Ei132FlfIsPOHH-35">
          <mxGeometry relative="1" as="geometry">
            <Array as="points">
              <mxPoint x="-130" y="504" />
              <mxPoint x="-130" y="782" />
            </Array>
          </mxGeometry>
        </mxCell>
        <mxCell id="1N1WW0Ei132FlfIsPOHH-88" value="站点是否可以自动获取到cookie" style="rhombus;whiteSpace=wrap;html=1;" vertex="1" parent="WIyWlLk6GJQsqaUBKTNV-1">
          <mxGeometry x="-25" y="459" width="110" height="90" as="geometry" />
        </mxCell>
        <mxCell id="1N1WW0Ei132FlfIsPOHH-90" value="可执行" style="ellipse;whiteSpace=wrap;html=1;fillColor=#d5e8d4;strokeColor=#82b366;" vertex="1" parent="WIyWlLk6GJQsqaUBKTNV-1">
          <mxGeometry x="-21.25" y="599" width="102.5" height="50" as="geometry" />
        </mxCell>
        <mxCell id="1N1WW0Ei132FlfIsPOHH-93" value="否" style="text;html=1;align=center;verticalAlign=middle;resizable=0;points=[];autosize=1;strokeColor=none;fillColor=none;" vertex="1" parent="WIyWlLk6GJQsqaUBKTNV-1">
          <mxGeometry x="-90" y="469" width="40" height="30" as="geometry" />
        </mxCell>
        <mxCell id="1N1WW0Ei132FlfIsPOHH-94" value="是" style="text;html=1;align=center;verticalAlign=middle;resizable=0;points=[];autosize=1;strokeColor=none;fillColor=none;" vertex="1" parent="WIyWlLk6GJQsqaUBKTNV-1">
          <mxGeometry x="30" y="557" width="40" height="30" as="geometry" />
        </mxCell>
        <mxCell id="1N1WW0Ei132FlfIsPOHH-95" value="是" style="text;html=1;align=center;verticalAlign=middle;resizable=0;points=[];autosize=1;strokeColor=none;fillColor=none;" vertex="1" parent="WIyWlLk6GJQsqaUBKTNV-1">
          <mxGeometry x="1760" y="244" width="40" height="30" as="geometry" />
        </mxCell>
        <mxCell id="1N1WW0Ei132FlfIsPOHH-132" style="edgeStyle=orthogonalEdgeStyle;rounded=0;orthogonalLoop=1;jettySize=auto;html=1;exitX=0.5;exitY=1;exitDx=0;exitDy=0;entryX=0.5;entryY=0;entryDx=0;entryDy=0;" edge="1" parent="WIyWlLk6GJQsqaUBKTNV-1" source="1N1WW0Ei132FlfIsPOHH-99" target="1N1WW0Ei132FlfIsPOHH-131">
          <mxGeometry relative="1" as="geometry" />
        </mxCell>
        <mxCell id="1N1WW0Ei132FlfIsPOHH-99" value="日志模式" style="rounded=0;whiteSpace=wrap;html=1;" vertex="1" parent="WIyWlLk6GJQsqaUBKTNV-1">
          <mxGeometry x="2998" y="330" width="120" height="60" as="geometry" />
        </mxCell>
        <mxCell id="1N1WW0Ei132FlfIsPOHH-198" style="edgeStyle=orthogonalEdgeStyle;rounded=0;orthogonalLoop=1;jettySize=auto;html=1;exitX=0.5;exitY=1;exitDx=0;exitDy=0;entryX=0.5;entryY=0;entryDx=0;entryDy=0;" edge="1" parent="WIyWlLk6GJQsqaUBKTNV-1" source="1N1WW0Ei132FlfIsPOHH-100" target="1N1WW0Ei132FlfIsPOHH-197">
          <mxGeometry relative="1" as="geometry" />
        </mxCell>
        <mxCell id="1N1WW0Ei132FlfIsPOHH-100" value="指纹模式" style="rounded=0;whiteSpace=wrap;html=1;" vertex="1" parent="WIyWlLk6GJQsqaUBKTNV-1">
          <mxGeometry x="819.86" y="368" width="120" height="60" as="geometry" />
        </mxCell>
        <mxCell id="1N1WW0Ei132FlfIsPOHH-101" value="智能模式" style="rounded=0;whiteSpace=wrap;html=1;" vertex="1" parent="WIyWlLk6GJQsqaUBKTNV-1">
          <mxGeometry x="2160" y="368" width="120" height="60" as="geometry" />
        </mxCell>
        <mxCell id="1N1WW0Ei132FlfIsPOHH-124" style="edgeStyle=orthogonalEdgeStyle;rounded=0;orthogonalLoop=1;jettySize=auto;html=1;exitX=0.5;exitY=1;exitDx=0;exitDy=0;entryX=0.5;entryY=0;entryDx=0;entryDy=0;" edge="1" parent="WIyWlLk6GJQsqaUBKTNV-1" source="1N1WW0Ei132FlfIsPOHH-108" target="1N1WW0Ei132FlfIsPOHH-125">
          <mxGeometry relative="1" as="geometry">
            <mxPoint x="3063" y="1064" as="targetPoint" />
          </mxGeometry>
        </mxCell>
        <mxCell id="1N1WW0Ei132FlfIsPOHH-108" value="发送payload" style="rounded=0;whiteSpace=wrap;html=1;" vertex="1" parent="WIyWlLk6GJQsqaUBKTNV-1">
          <mxGeometry x="2982" y="902" width="172" height="39.5" as="geometry" />
        </mxCell>
        <mxCell id="1N1WW0Ei132FlfIsPOHH-236" style="edgeStyle=orthogonalEdgeStyle;rounded=0;orthogonalLoop=1;jettySize=auto;html=1;exitX=0.5;exitY=1;exitDx=0;exitDy=0;entryX=0.5;entryY=0;entryDx=0;entryDy=0;" edge="1" parent="WIyWlLk6GJQsqaUBKTNV-1" source="1N1WW0Ei132FlfIsPOHH-113" target="1N1WW0Ei132FlfIsPOHH-235">
          <mxGeometry relative="1" as="geometry" />
        </mxCell>
        <mxCell id="1N1WW0Ei132FlfIsPOHH-113" value="遍历payload" style="rhombus;whiteSpace=wrap;html=1;" vertex="1" parent="WIyWlLk6GJQsqaUBKTNV-1">
          <mxGeometry x="3022" y="664" width="92" height="70" as="geometry" />
        </mxCell>
        <mxCell id="1N1WW0Ei132FlfIsPOHH-123" style="edgeStyle=orthogonalEdgeStyle;rounded=0;orthogonalLoop=1;jettySize=auto;html=1;exitX=0.5;exitY=1;exitDx=0;exitDy=0;entryX=0.5;entryY=0;entryDx=0;entryDy=0;" edge="1" parent="WIyWlLk6GJQsqaUBKTNV-1" source="1N1WW0Ei132FlfIsPOHH-121" target="1N1WW0Ei132FlfIsPOHH-113">
          <mxGeometry relative="1" as="geometry" />
        </mxCell>
        <mxCell id="1N1WW0Ei132FlfIsPOHH-153" style="edgeStyle=orthogonalEdgeStyle;rounded=0;orthogonalLoop=1;jettySize=auto;html=1;exitX=1;exitY=0.5;exitDx=0;exitDy=0;entryX=0;entryY=0.5;entryDx=0;entryDy=0;" edge="1" parent="WIyWlLk6GJQsqaUBKTNV-1" source="1N1WW0Ei132FlfIsPOHH-121" target="1N1WW0Ei132FlfIsPOHH-129">
          <mxGeometry relative="1" as="geometry" />
        </mxCell>
        <mxCell id="1N1WW0Ei132FlfIsPOHH-121" value="异步监听响应&lt;br&gt;Deal" style="rounded=0;whiteSpace=wrap;html=1;" vertex="1" parent="WIyWlLk6GJQsqaUBKTNV-1">
          <mxGeometry x="3008" y="572" width="120" height="60" as="geometry" />
        </mxCell>
        <mxCell id="1N1WW0Ei132FlfIsPOHH-128" style="edgeStyle=orthogonalEdgeStyle;rounded=0;orthogonalLoop=1;jettySize=auto;html=1;exitX=0;exitY=0.5;exitDx=0;exitDy=0;entryX=0;entryY=0.5;entryDx=0;entryDy=0;" edge="1" parent="WIyWlLk6GJQsqaUBKTNV-1" source="1N1WW0Ei132FlfIsPOHH-125" target="1N1WW0Ei132FlfIsPOHH-113">
          <mxGeometry relative="1" as="geometry">
            <Array as="points">
              <mxPoint x="2930" y="1032" />
              <mxPoint x="2930" y="699" />
            </Array>
          </mxGeometry>
        </mxCell>
        <mxCell id="1N1WW0Ei132FlfIsPOHH-125" value="响应写入channel&lt;br&gt;Deal中处理" style="rounded=0;whiteSpace=wrap;html=1;" vertex="1" parent="WIyWlLk6GJQsqaUBKTNV-1">
          <mxGeometry x="3008" y="1002" width="120" height="60" as="geometry" />
        </mxCell>
        <mxCell id="1N1WW0Ei132FlfIsPOHH-137" style="edgeStyle=orthogonalEdgeStyle;rounded=0;orthogonalLoop=1;jettySize=auto;html=1;exitX=0.5;exitY=1;exitDx=0;exitDy=0;entryX=0.5;entryY=0;entryDx=0;entryDy=0;" edge="1" parent="WIyWlLk6GJQsqaUBKTNV-1" source="1N1WW0Ei132FlfIsPOHH-129" target="1N1WW0Ei132FlfIsPOHH-135">
          <mxGeometry relative="1" as="geometry" />
        </mxCell>
        <mxCell id="1N1WW0Ei132FlfIsPOHH-129" value="异步监听响应&lt;br&gt;Deal" style="rounded=0;whiteSpace=wrap;html=1;" vertex="1" parent="WIyWlLk6GJQsqaUBKTNV-1">
          <mxGeometry x="3527.5" y="782" width="120" height="60" as="geometry" />
        </mxCell>
        <mxCell id="1N1WW0Ei132FlfIsPOHH-133" style="edgeStyle=orthogonalEdgeStyle;rounded=0;orthogonalLoop=1;jettySize=auto;html=1;exitX=0.5;exitY=1;exitDx=0;exitDy=0;entryX=0.5;entryY=0;entryDx=0;entryDy=0;" edge="1" parent="WIyWlLk6GJQsqaUBKTNV-1" source="1N1WW0Ei132FlfIsPOHH-131" target="1N1WW0Ei132FlfIsPOHH-121">
          <mxGeometry relative="1" as="geometry" />
        </mxCell>
        <mxCell id="1N1WW0Ei132FlfIsPOHH-162" style="edgeStyle=orthogonalEdgeStyle;rounded=0;orthogonalLoop=1;jettySize=auto;html=1;exitX=0;exitY=0.5;exitDx=0;exitDy=0;entryX=0.5;entryY=0;entryDx=0;entryDy=0;" edge="1" parent="WIyWlLk6GJQsqaUBKTNV-1" source="1N1WW0Ei132FlfIsPOHH-131" target="1N1WW0Ei132FlfIsPOHH-164">
          <mxGeometry relative="1" as="geometry">
            <mxPoint x="3008.0000000000005" y="1180" as="targetPoint" />
            <Array as="points">
              <mxPoint x="2890" y="490" />
              <mxPoint x="2890" y="1120" />
              <mxPoint x="3068" y="1120" />
            </Array>
          </mxGeometry>
        </mxCell>
        <mxCell id="1N1WW0Ei132FlfIsPOHH-131" value="静态编码发送" style="rounded=0;whiteSpace=wrap;html=1;fillColor=#cce5ff;strokeColor=#36393d;" vertex="1" parent="WIyWlLk6GJQsqaUBKTNV-1">
          <mxGeometry x="3008" y="460" width="120" height="60" as="geometry" />
        </mxCell>
        <mxCell id="1N1WW0Ei132FlfIsPOHH-138" style="edgeStyle=orthogonalEdgeStyle;rounded=0;orthogonalLoop=1;jettySize=auto;html=1;exitX=0.5;exitY=1;exitDx=0;exitDy=0;entryX=0.5;entryY=0;entryDx=0;entryDy=0;" edge="1" parent="WIyWlLk6GJQsqaUBKTNV-1" source="1N1WW0Ei132FlfIsPOHH-135" target="1N1WW0Ei132FlfIsPOHH-139">
          <mxGeometry relative="1" as="geometry">
            <mxPoint x="3587.6739130434785" y="972" as="targetPoint" />
          </mxGeometry>
        </mxCell>
        <mxCell id="1N1WW0Ei132FlfIsPOHH-135" value="获取Asbas-id,对应日志" style="rounded=0;whiteSpace=wrap;html=1;" vertex="1" parent="WIyWlLk6GJQsqaUBKTNV-1">
          <mxGeometry x="3522.5" y="904" width="130" height="40" as="geometry" />
        </mxCell>
        <mxCell id="1N1WW0Ei132FlfIsPOHH-147" style="edgeStyle=orthogonalEdgeStyle;rounded=0;orthogonalLoop=1;jettySize=auto;html=1;exitX=0.5;exitY=1;exitDx=0;exitDy=0;entryX=0.5;entryY=0;entryDx=0;entryDy=0;" edge="1" parent="WIyWlLk6GJQsqaUBKTNV-1" source="1N1WW0Ei132FlfIsPOHH-139" target="1N1WW0Ei132FlfIsPOHH-144">
          <mxGeometry relative="1" as="geometry" />
        </mxCell>
        <mxCell id="1N1WW0Ei132FlfIsPOHH-149" style="edgeStyle=orthogonalEdgeStyle;rounded=0;orthogonalLoop=1;jettySize=auto;html=1;exitX=1;exitY=0.5;exitDx=0;exitDy=0;entryX=0.5;entryY=0;entryDx=0;entryDy=0;" edge="1" parent="WIyWlLk6GJQsqaUBKTNV-1" source="1N1WW0Ei132FlfIsPOHH-139" target="1N1WW0Ei132FlfIsPOHH-150">
          <mxGeometry relative="1" as="geometry">
            <mxPoint x="3732.5" y="1112" as="targetPoint" />
          </mxGeometry>
        </mxCell>
        <mxCell id="1N1WW0Ei132FlfIsPOHH-139" value="拦截状态" style="rhombus;whiteSpace=wrap;html=1;" vertex="1" parent="WIyWlLk6GJQsqaUBKTNV-1">
          <mxGeometry x="3520" y="992" width="135" height="60" as="geometry" />
        </mxCell>
        <mxCell id="1N1WW0Ei132FlfIsPOHH-144" value="payload拦截成功" style="rounded=1;whiteSpace=wrap;html=1;fillColor=#fff2cc;strokeColor=#d6b656;" vertex="1" parent="WIyWlLk6GJQsqaUBKTNV-1">
          <mxGeometry x="3537.5" y="1116" width="100" height="43" as="geometry" />
        </mxCell>
        <mxCell id="1N1WW0Ei132FlfIsPOHH-146" value="&lt;span style=&quot;text-align: left; text-wrap: wrap;&quot;&gt;deny&lt;/span&gt;" style="text;html=1;align=center;verticalAlign=middle;resizable=0;points=[];autosize=1;strokeColor=none;fillColor=none;" vertex="1" parent="WIyWlLk6GJQsqaUBKTNV-1">
          <mxGeometry x="3582.5" y="1062" width="50" height="30" as="geometry" />
        </mxCell>
        <mxCell id="1N1WW0Ei132FlfIsPOHH-150" value="payload拦截失败" style="rounded=1;whiteSpace=wrap;html=1;fillColor=#fff2cc;strokeColor=#d6b656;" vertex="1" parent="WIyWlLk6GJQsqaUBKTNV-1">
          <mxGeometry x="3682.5" y="1116" width="100" height="43" as="geometry" />
        </mxCell>
        <mxCell id="1N1WW0Ei132FlfIsPOHH-157" value="静态编码发送结束" style="text;html=1;align=center;verticalAlign=middle;resizable=0;points=[];autosize=1;strokeColor=none;fillColor=none;" vertex="1" parent="WIyWlLk6GJQsqaUBKTNV-1">
          <mxGeometry x="2870" y="460" width="120" height="30" as="geometry" />
        </mxCell>
        <mxCell id="1N1WW0Ei132FlfIsPOHH-171" style="edgeStyle=orthogonalEdgeStyle;rounded=0;orthogonalLoop=1;jettySize=auto;html=1;exitX=0;exitY=0.5;exitDx=0;exitDy=0;entryX=0.5;entryY=0;entryDx=0;entryDy=0;" edge="1" parent="WIyWlLk6GJQsqaUBKTNV-1" source="1N1WW0Ei132FlfIsPOHH-164" target="1N1WW0Ei132FlfIsPOHH-166">
          <mxGeometry relative="1" as="geometry" />
        </mxCell>
        <mxCell id="1N1WW0Ei132FlfIsPOHH-178" style="edgeStyle=orthogonalEdgeStyle;rounded=0;orthogonalLoop=1;jettySize=auto;html=1;exitX=0.5;exitY=1;exitDx=0;exitDy=0;entryX=0.5;entryY=0;entryDx=0;entryDy=0;" edge="1" parent="WIyWlLk6GJQsqaUBKTNV-1" source="1N1WW0Ei132FlfIsPOHH-164" target="1N1WW0Ei132FlfIsPOHH-177">
          <mxGeometry relative="1" as="geometry" />
        </mxCell>
        <mxCell id="1N1WW0Ei132FlfIsPOHH-164" value="是否动态编码发送" style="rhombus;whiteSpace=wrap;html=1;fillColor=#cce5ff;strokeColor=#36393d;" vertex="1" parent="WIyWlLk6GJQsqaUBKTNV-1">
          <mxGeometry x="3007" y="1140" width="122" height="80" as="geometry" />
        </mxCell>
        <mxCell id="1N1WW0Ei132FlfIsPOHH-166" value="结束" style="ellipse;whiteSpace=wrap;html=1;" vertex="1" parent="WIyWlLk6GJQsqaUBKTNV-1">
          <mxGeometry x="2840" y="2010" width="85" height="50" as="geometry" />
        </mxCell>
        <mxCell id="1N1WW0Ei132FlfIsPOHH-167" value="否" style="text;html=1;align=center;verticalAlign=middle;resizable=0;points=[];autosize=1;strokeColor=none;fillColor=none;" vertex="1" parent="WIyWlLk6GJQsqaUBKTNV-1">
          <mxGeometry x="2978" y="1159" width="40" height="30" as="geometry" />
        </mxCell>
        <mxCell id="1N1WW0Ei132FlfIsPOHH-170" value="是" style="text;html=1;align=center;verticalAlign=middle;resizable=0;points=[];autosize=1;strokeColor=none;fillColor=none;" vertex="1" parent="WIyWlLk6GJQsqaUBKTNV-1">
          <mxGeometry x="3078" y="1220" width="40" height="30" as="geometry" />
        </mxCell>
        <mxCell id="1N1WW0Ei132FlfIsPOHH-176" style="edgeStyle=orthogonalEdgeStyle;rounded=0;orthogonalLoop=1;jettySize=auto;html=1;exitX=0.5;exitY=1;exitDx=0;exitDy=0;entryX=0.5;entryY=0;entryDx=0;entryDy=0;" edge="1" parent="WIyWlLk6GJQsqaUBKTNV-1" source="1N1WW0Ei132FlfIsPOHH-173" target="1N1WW0Ei132FlfIsPOHH-175">
          <mxGeometry relative="1" as="geometry" />
        </mxCell>
        <mxCell id="1N1WW0Ei132FlfIsPOHH-173" value="获取静态编码发送时拦截成功的payload" style="rounded=0;whiteSpace=wrap;html=1;" vertex="1" parent="WIyWlLk6GJQsqaUBKTNV-1">
          <mxGeometry x="3008" y="1380" width="120" height="60" as="geometry" />
        </mxCell>
        <mxCell id="1N1WW0Ei132FlfIsPOHH-184" style="edgeStyle=orthogonalEdgeStyle;rounded=0;orthogonalLoop=1;jettySize=auto;html=1;exitX=0.5;exitY=1;exitDx=0;exitDy=0;entryX=0.5;entryY=0;entryDx=0;entryDy=0;" edge="1" parent="WIyWlLk6GJQsqaUBKTNV-1" source="1N1WW0Ei132FlfIsPOHH-175" target="1N1WW0Ei132FlfIsPOHH-183">
          <mxGeometry relative="1" as="geometry" />
        </mxCell>
        <mxCell id="1N1WW0Ei132FlfIsPOHH-175" value="遍历payload" style="rhombus;whiteSpace=wrap;html=1;" vertex="1" parent="WIyWlLk6GJQsqaUBKTNV-1">
          <mxGeometry x="3022" y="1490" width="92" height="70" as="geometry" />
        </mxCell>
        <mxCell id="1N1WW0Ei132FlfIsPOHH-179" style="edgeStyle=orthogonalEdgeStyle;rounded=0;orthogonalLoop=1;jettySize=auto;html=1;exitX=0.5;exitY=1;exitDx=0;exitDy=0;entryX=0.5;entryY=0;entryDx=0;entryDy=0;" edge="1" parent="WIyWlLk6GJQsqaUBKTNV-1" source="1N1WW0Ei132FlfIsPOHH-177" target="1N1WW0Ei132FlfIsPOHH-173">
          <mxGeometry relative="1" as="geometry" />
        </mxCell>
        <mxCell id="1N1WW0Ei132FlfIsPOHH-180" style="edgeStyle=orthogonalEdgeStyle;rounded=0;orthogonalLoop=1;jettySize=auto;html=1;exitX=1;exitY=0.5;exitDx=0;exitDy=0;entryX=0;entryY=0.5;entryDx=0;entryDy=0;" edge="1" parent="WIyWlLk6GJQsqaUBKTNV-1" source="1N1WW0Ei132FlfIsPOHH-177" target="1N1WW0Ei132FlfIsPOHH-129">
          <mxGeometry relative="1" as="geometry" />
        </mxCell>
        <mxCell id="1N1WW0Ei132FlfIsPOHH-177" value="异步监听响应&lt;br&gt;Deal" style="rounded=0;whiteSpace=wrap;html=1;" vertex="1" parent="WIyWlLk6GJQsqaUBKTNV-1">
          <mxGeometry x="3008" y="1270" width="120" height="60" as="geometry" />
        </mxCell>
        <mxCell id="1N1WW0Ei132FlfIsPOHH-181" value="日志模式通过读取clickhouse中&lt;div&gt;返回的日志判断是否拦截&lt;/div&gt;" style="text;html=1;align=center;verticalAlign=middle;resizable=0;points=[];autosize=1;strokeColor=none;fillColor=none;" vertex="1" parent="WIyWlLk6GJQsqaUBKTNV-1">
          <mxGeometry x="3143" y="558" width="190" height="40" as="geometry" />
        </mxCell>
        <mxCell id="1N1WW0Ei132FlfIsPOHH-247" style="edgeStyle=orthogonalEdgeStyle;rounded=0;orthogonalLoop=1;jettySize=auto;html=1;exitX=0.5;exitY=1;exitDx=0;exitDy=0;entryX=0.5;entryY=0;entryDx=0;entryDy=0;" edge="1" parent="WIyWlLk6GJQsqaUBKTNV-1" source="1N1WW0Ei132FlfIsPOHH-183" target="1N1WW0Ei132FlfIsPOHH-242">
          <mxGeometry relative="1" as="geometry" />
        </mxCell>
        <mxCell id="1N1WW0Ei132FlfIsPOHH-183" value="遍历编码方式" style="rhombus;whiteSpace=wrap;html=1;" vertex="1" parent="WIyWlLk6GJQsqaUBKTNV-1">
          <mxGeometry x="3022" y="1600" width="92" height="70" as="geometry" />
        </mxCell>
        <mxCell id="1N1WW0Ei132FlfIsPOHH-186" style="edgeStyle=orthogonalEdgeStyle;rounded=0;orthogonalLoop=1;jettySize=auto;html=1;exitX=0.5;exitY=1;exitDx=0;exitDy=0;entryX=0.5;entryY=0;entryDx=0;entryDy=0;" edge="1" parent="WIyWlLk6GJQsqaUBKTNV-1" source="1N1WW0Ei132FlfIsPOHH-187" target="1N1WW0Ei132FlfIsPOHH-188">
          <mxGeometry relative="1" as="geometry">
            <mxPoint x="3063" y="1992" as="targetPoint" />
          </mxGeometry>
        </mxCell>
        <mxCell id="1N1WW0Ei132FlfIsPOHH-187" value="发送payload" style="rounded=0;whiteSpace=wrap;html=1;" vertex="1" parent="WIyWlLk6GJQsqaUBKTNV-1">
          <mxGeometry x="2982" y="1830" width="172" height="39.5" as="geometry" />
        </mxCell>
        <mxCell id="1N1WW0Ei132FlfIsPOHH-191" style="edgeStyle=orthogonalEdgeStyle;rounded=0;orthogonalLoop=1;jettySize=auto;html=1;exitX=1;exitY=0.5;exitDx=0;exitDy=0;entryX=1;entryY=0.5;entryDx=0;entryDy=0;" edge="1" parent="WIyWlLk6GJQsqaUBKTNV-1" source="1N1WW0Ei132FlfIsPOHH-188" target="1N1WW0Ei132FlfIsPOHH-183">
          <mxGeometry relative="1" as="geometry">
            <Array as="points">
              <mxPoint x="3200" y="1940" />
              <mxPoint x="3200" y="1635" />
            </Array>
          </mxGeometry>
        </mxCell>
        <mxCell id="1N1WW0Ei132FlfIsPOHH-195" style="edgeStyle=orthogonalEdgeStyle;rounded=0;orthogonalLoop=1;jettySize=auto;html=1;exitX=1;exitY=0.5;exitDx=0;exitDy=0;entryX=1;entryY=0.5;entryDx=0;entryDy=0;" edge="1" parent="WIyWlLk6GJQsqaUBKTNV-1" source="1N1WW0Ei132FlfIsPOHH-188" target="1N1WW0Ei132FlfIsPOHH-175">
          <mxGeometry relative="1" as="geometry">
            <Array as="points">
              <mxPoint x="3230" y="1940" />
              <mxPoint x="3230" y="1525" />
            </Array>
          </mxGeometry>
        </mxCell>
        <mxCell id="1N1WW0Ei132FlfIsPOHH-188" value="响应写入channel&lt;br&gt;Deal中处理" style="rounded=0;whiteSpace=wrap;html=1;" vertex="1" parent="WIyWlLk6GJQsqaUBKTNV-1">
          <mxGeometry x="3008" y="1910" width="120" height="60" as="geometry" />
        </mxCell>
        <mxCell id="1N1WW0Ei132FlfIsPOHH-196" value="编码方式遍历结束" style="text;html=1;align=center;verticalAlign=middle;resizable=0;points=[];autosize=1;strokeColor=none;fillColor=none;" vertex="1" parent="WIyWlLk6GJQsqaUBKTNV-1">
          <mxGeometry x="3140" y="1500" width="120" height="30" as="geometry" />
        </mxCell>
        <mxCell id="1N1WW0Ei132FlfIsPOHH-204" style="edgeStyle=orthogonalEdgeStyle;rounded=0;orthogonalLoop=1;jettySize=auto;html=1;exitX=0.5;exitY=1;exitDx=0;exitDy=0;entryX=0.5;entryY=0;entryDx=0;entryDy=0;" edge="1" parent="WIyWlLk6GJQsqaUBKTNV-1" source="1N1WW0Ei132FlfIsPOHH-197" target="1N1WW0Ei132FlfIsPOHH-199">
          <mxGeometry relative="1" as="geometry" />
        </mxCell>
        <mxCell id="1N1WW0Ei132FlfIsPOHH-197" value="静态编码发送" style="rounded=0;whiteSpace=wrap;html=1;fillColor=#cce5ff;strokeColor=#36393d;" vertex="1" parent="WIyWlLk6GJQsqaUBKTNV-1">
          <mxGeometry x="819.86" y="500" width="120" height="60" as="geometry" />
        </mxCell>
        <mxCell id="1N1WW0Ei132FlfIsPOHH-517" style="edgeStyle=orthogonalEdgeStyle;rounded=0;orthogonalLoop=1;jettySize=auto;html=1;exitX=0.5;exitY=1;exitDx=0;exitDy=0;entryX=0.5;entryY=0;entryDx=0;entryDy=0;" edge="1" parent="WIyWlLk6GJQsqaUBKTNV-1" source="1N1WW0Ei132FlfIsPOHH-199" target="1N1WW0Ei132FlfIsPOHH-516">
          <mxGeometry relative="1" as="geometry" />
        </mxCell>
        <mxCell id="1N1WW0Ei132FlfIsPOHH-199" value="遍历payload" style="rhombus;whiteSpace=wrap;html=1;" vertex="1" parent="WIyWlLk6GJQsqaUBKTNV-1">
          <mxGeometry x="834.86" y="620" width="90" height="80" as="geometry" />
        </mxCell>
        <mxCell id="1N1WW0Ei132FlfIsPOHH-500" style="edgeStyle=orthogonalEdgeStyle;rounded=0;orthogonalLoop=1;jettySize=auto;html=1;exitX=0.5;exitY=1;exitDx=0;exitDy=0;entryX=0.5;entryY=0;entryDx=0;entryDy=0;" edge="1" parent="WIyWlLk6GJQsqaUBKTNV-1" source="1N1WW0Ei132FlfIsPOHH-505" target="1N1WW0Ei132FlfIsPOHH-503">
          <mxGeometry relative="1" as="geometry">
            <mxPoint x="879.86" y="940" as="targetPoint" />
          </mxGeometry>
        </mxCell>
        <mxCell id="1N1WW0Ei132FlfIsPOHH-201" value="发送payload" style="rounded=0;whiteSpace=wrap;html=1;" vertex="1" parent="WIyWlLk6GJQsqaUBKTNV-1">
          <mxGeometry x="793.86" y="850" width="172" height="39.5" as="geometry" />
        </mxCell>
        <mxCell id="1N1WW0Ei132FlfIsPOHH-217" style="edgeStyle=orthogonalEdgeStyle;rounded=0;orthogonalLoop=1;jettySize=auto;html=1;exitX=0.5;exitY=1;exitDx=0;exitDy=0;entryX=0.5;entryY=0;entryDx=0;entryDy=0;" edge="1" parent="WIyWlLk6GJQsqaUBKTNV-1" source="1N1WW0Ei132FlfIsPOHH-205" target="1N1WW0Ei132FlfIsPOHH-208">
          <mxGeometry relative="1" as="geometry" />
        </mxCell>
        <mxCell id="1N1WW0Ei132FlfIsPOHH-218" style="edgeStyle=orthogonalEdgeStyle;rounded=0;orthogonalLoop=1;jettySize=auto;html=1;exitX=0.5;exitY=1;exitDx=0;exitDy=0;entryX=0.5;entryY=0;entryDx=0;entryDy=0;" edge="1" parent="WIyWlLk6GJQsqaUBKTNV-1" source="1N1WW0Ei132FlfIsPOHH-205" target="1N1WW0Ei132FlfIsPOHH-215">
          <mxGeometry relative="1" as="geometry" />
        </mxCell>
        <mxCell id="1N1WW0Ei132FlfIsPOHH-219" style="edgeStyle=orthogonalEdgeStyle;rounded=0;orthogonalLoop=1;jettySize=auto;html=1;exitX=0.5;exitY=1;exitDx=0;exitDy=0;entryX=0.5;entryY=0;entryDx=0;entryDy=0;" edge="1" parent="WIyWlLk6GJQsqaUBKTNV-1" source="1N1WW0Ei132FlfIsPOHH-205" target="1N1WW0Ei132FlfIsPOHH-211">
          <mxGeometry relative="1" as="geometry" />
        </mxCell>
        <mxCell id="1N1WW0Ei132FlfIsPOHH-362" style="edgeStyle=orthogonalEdgeStyle;rounded=0;orthogonalLoop=1;jettySize=auto;html=1;exitX=1;exitY=0.5;exitDx=0;exitDy=0;entryX=0.5;entryY=0;entryDx=0;entryDy=0;" edge="1" parent="WIyWlLk6GJQsqaUBKTNV-1" source="1N1WW0Ei132FlfIsPOHH-205" target="1N1WW0Ei132FlfIsPOHH-329">
          <mxGeometry relative="1" as="geometry" />
        </mxCell>
        <mxCell id="1N1WW0Ei132FlfIsPOHH-205" value="收到HTTP响应" style="rhombus;whiteSpace=wrap;html=1;" vertex="1" parent="WIyWlLk6GJQsqaUBKTNV-1">
          <mxGeometry x="1259.8600000000001" y="1326.5" width="120" height="70" as="geometry" />
        </mxCell>
        <mxCell id="1N1WW0Ei132FlfIsPOHH-223" style="edgeStyle=orthogonalEdgeStyle;rounded=0;orthogonalLoop=1;jettySize=auto;html=1;exitX=0.5;exitY=1;exitDx=0;exitDy=0;entryX=0.5;entryY=0;entryDx=0;entryDy=0;" edge="1" parent="WIyWlLk6GJQsqaUBKTNV-1" source="1N1WW0Ei132FlfIsPOHH-208" target="1N1WW0Ei132FlfIsPOHH-221">
          <mxGeometry relative="1" as="geometry" />
        </mxCell>
        <mxCell id="1N1WW0Ei132FlfIsPOHH-208" value="HTTP 超时" style="rounded=0;whiteSpace=wrap;html=1;" vertex="1" parent="WIyWlLk6GJQsqaUBKTNV-1">
          <mxGeometry x="1140.3600000000001" y="1582.5" width="99" height="48" as="geometry" />
        </mxCell>
        <mxCell id="1N1WW0Ei132FlfIsPOHH-369" style="edgeStyle=orthogonalEdgeStyle;rounded=0;orthogonalLoop=1;jettySize=auto;html=1;exitX=0.5;exitY=1;exitDx=0;exitDy=0;entryX=0.5;entryY=0;entryDx=0;entryDy=0;" edge="1" parent="WIyWlLk6GJQsqaUBKTNV-1" source="1N1WW0Ei132FlfIsPOHH-211" target="1N1WW0Ei132FlfIsPOHH-364">
          <mxGeometry relative="1" as="geometry" />
        </mxCell>
        <mxCell id="1N1WW0Ei132FlfIsPOHH-211" value="TCP Close" style="rounded=0;whiteSpace=wrap;html=1;" vertex="1" parent="WIyWlLk6GJQsqaUBKTNV-1">
          <mxGeometry x="1400.3600000000001" y="1582.5" width="99" height="48" as="geometry" />
        </mxCell>
        <mxCell id="1N1WW0Ei132FlfIsPOHH-370" style="edgeStyle=orthogonalEdgeStyle;rounded=0;orthogonalLoop=1;jettySize=auto;html=1;exitX=0.5;exitY=1;exitDx=0;exitDy=0;entryX=0.5;entryY=0;entryDx=0;entryDy=0;" edge="1" parent="WIyWlLk6GJQsqaUBKTNV-1" source="1N1WW0Ei132FlfIsPOHH-215" target="1N1WW0Ei132FlfIsPOHH-364">
          <mxGeometry relative="1" as="geometry">
            <mxPoint x="1369.8600000000001" y="2006.5" as="targetPoint" />
            <Array as="points">
              <mxPoint x="1320.8600000000001" y="1836.5" />
              <mxPoint x="1448.8600000000001" y="1836.5" />
            </Array>
          </mxGeometry>
        </mxCell>
        <mxCell id="1N1WW0Ei132FlfIsPOHH-215" value="TCP Reset" style="rounded=0;whiteSpace=wrap;html=1;" vertex="1" parent="WIyWlLk6GJQsqaUBKTNV-1">
          <mxGeometry x="1271.3600000000001" y="1582.5" width="99" height="48" as="geometry" />
        </mxCell>
        <mxCell id="1N1WW0Ei132FlfIsPOHH-270" style="edgeStyle=orthogonalEdgeStyle;rounded=0;orthogonalLoop=1;jettySize=auto;html=1;exitX=0;exitY=0.5;exitDx=0;exitDy=0;entryX=0.5;entryY=0;entryDx=0;entryDy=0;" edge="1" parent="WIyWlLk6GJQsqaUBKTNV-1" source="1N1WW0Ei132FlfIsPOHH-221" target="1N1WW0Ei132FlfIsPOHH-365">
          <mxGeometry relative="1" as="geometry">
            <mxPoint x="1109.8600000000001" y="1831.5" as="targetPoint" />
            <Array as="points">
              <mxPoint x="1120.8600000000001" y="1696.5" />
              <mxPoint x="1120.8600000000001" y="2096.5" />
              <mxPoint x="1238.8600000000001" y="2096.5" />
            </Array>
          </mxGeometry>
        </mxCell>
        <mxCell id="1N1WW0Ei132FlfIsPOHH-371" style="edgeStyle=orthogonalEdgeStyle;rounded=0;orthogonalLoop=1;jettySize=auto;html=1;exitX=0.5;exitY=1;exitDx=0;exitDy=0;entryX=0.5;entryY=0;entryDx=0;entryDy=0;" edge="1" parent="WIyWlLk6GJQsqaUBKTNV-1" source="1N1WW0Ei132FlfIsPOHH-221" target="1N1WW0Ei132FlfIsPOHH-364">
          <mxGeometry relative="1" as="geometry">
            <Array as="points">
              <mxPoint x="1184.8600000000001" y="1836.5" />
              <mxPoint x="1448.8600000000001" y="1836.5" />
            </Array>
          </mxGeometry>
        </mxCell>
        <mxCell id="1N1WW0Ei132FlfIsPOHH-221" value="是否设置超时" style="rhombus;whiteSpace=wrap;html=1;" vertex="1" parent="WIyWlLk6GJQsqaUBKTNV-1">
          <mxGeometry x="1140.3600000000001" y="1661.5" width="90" height="70" as="geometry" />
        </mxCell>
        <mxCell id="1N1WW0Ei132FlfIsPOHH-225" value="是" style="text;html=1;align=center;verticalAlign=middle;resizable=0;points=[];autosize=1;strokeColor=none;fillColor=none;" vertex="1" parent="WIyWlLk6GJQsqaUBKTNV-1">
          <mxGeometry x="1193.8600000000001" y="1731.5" width="40" height="30" as="geometry" />
        </mxCell>
        <mxCell id="1N1WW0Ei132FlfIsPOHH-231" value="waf阻断" style="text;html=1;align=center;verticalAlign=middle;resizable=0;points=[];autosize=1;strokeColor=none;fillColor=none;" vertex="1" parent="WIyWlLk6GJQsqaUBKTNV-1">
          <mxGeometry x="1309.8600000000001" y="1641.5" width="70" height="30" as="geometry" />
        </mxCell>
        <mxCell id="1N1WW0Ei132FlfIsPOHH-232" value="waf阻断" style="text;html=1;align=center;verticalAlign=middle;resizable=0;points=[];autosize=1;strokeColor=none;fillColor=none;" vertex="1" parent="WIyWlLk6GJQsqaUBKTNV-1">
          <mxGeometry x="1439.8600000000001" y="1641.5" width="70" height="30" as="geometry" />
        </mxCell>
        <mxCell id="1N1WW0Ei132FlfIsPOHH-237" style="edgeStyle=orthogonalEdgeStyle;rounded=0;orthogonalLoop=1;jettySize=auto;html=1;exitX=0.5;exitY=1;exitDx=0;exitDy=0;entryX=0.5;entryY=0;entryDx=0;entryDy=0;" edge="1" parent="WIyWlLk6GJQsqaUBKTNV-1" source="1N1WW0Ei132FlfIsPOHH-235" target="1N1WW0Ei132FlfIsPOHH-108">
          <mxGeometry relative="1" as="geometry" />
        </mxCell>
        <mxCell id="1N1WW0Ei132FlfIsPOHH-239" style="edgeStyle=orthogonalEdgeStyle;rounded=0;orthogonalLoop=1;jettySize=auto;html=1;exitX=0;exitY=0.5;exitDx=0;exitDy=0;entryX=0;entryY=0.5;entryDx=0;entryDy=0;" edge="1" parent="WIyWlLk6GJQsqaUBKTNV-1" source="1N1WW0Ei132FlfIsPOHH-235" target="1N1WW0Ei132FlfIsPOHH-113">
          <mxGeometry relative="1" as="geometry" />
        </mxCell>
        <mxCell id="1N1WW0Ei132FlfIsPOHH-235" value="目标可达？&lt;div&gt;不带payload&lt;br&gt;返回响应体&lt;/div&gt;" style="rhombus;whiteSpace=wrap;html=1;" vertex="1" parent="WIyWlLk6GJQsqaUBKTNV-1">
          <mxGeometry x="2998" y="765.5" width="138" height="93" as="geometry" />
        </mxCell>
        <mxCell id="1N1WW0Ei132FlfIsPOHH-240" value="是" style="text;html=1;align=center;verticalAlign=middle;resizable=0;points=[];autosize=1;strokeColor=none;fillColor=none;" vertex="1" parent="WIyWlLk6GJQsqaUBKTNV-1">
          <mxGeometry x="3060" y="858" width="40" height="30" as="geometry" />
        </mxCell>
        <mxCell id="1N1WW0Ei132FlfIsPOHH-241" value="否" style="text;html=1;align=center;verticalAlign=middle;resizable=0;points=[];autosize=1;strokeColor=none;fillColor=none;" vertex="1" parent="WIyWlLk6GJQsqaUBKTNV-1">
          <mxGeometry x="2970" y="778" width="40" height="30" as="geometry" />
        </mxCell>
        <mxCell id="1N1WW0Ei132FlfIsPOHH-245" style="edgeStyle=orthogonalEdgeStyle;rounded=0;orthogonalLoop=1;jettySize=auto;html=1;exitX=0.5;exitY=1;exitDx=0;exitDy=0;entryX=0.5;entryY=0;entryDx=0;entryDy=0;" edge="1" parent="WIyWlLk6GJQsqaUBKTNV-1" source="1N1WW0Ei132FlfIsPOHH-242" target="1N1WW0Ei132FlfIsPOHH-187">
          <mxGeometry relative="1" as="geometry" />
        </mxCell>
        <mxCell id="1N1WW0Ei132FlfIsPOHH-246" style="edgeStyle=orthogonalEdgeStyle;rounded=0;orthogonalLoop=1;jettySize=auto;html=1;exitX=1;exitY=0.5;exitDx=0;exitDy=0;entryX=1;entryY=0.5;entryDx=0;entryDy=0;" edge="1" parent="WIyWlLk6GJQsqaUBKTNV-1" source="1N1WW0Ei132FlfIsPOHH-242" target="1N1WW0Ei132FlfIsPOHH-183">
          <mxGeometry relative="1" as="geometry">
            <Array as="points">
              <mxPoint x="3170" y="1747" />
              <mxPoint x="3170" y="1635" />
            </Array>
          </mxGeometry>
        </mxCell>
        <mxCell id="1N1WW0Ei132FlfIsPOHH-242" value="目标可达？&lt;div&gt;不带payload&lt;br&gt;返回响应体&lt;/div&gt;" style="rhombus;whiteSpace=wrap;html=1;" vertex="1" parent="WIyWlLk6GJQsqaUBKTNV-1">
          <mxGeometry x="2999" y="1700" width="138" height="93" as="geometry" />
        </mxCell>
        <mxCell id="1N1WW0Ei132FlfIsPOHH-243" value="是" style="text;html=1;align=center;verticalAlign=middle;resizable=0;points=[];autosize=1;strokeColor=none;fillColor=none;" vertex="1" parent="WIyWlLk6GJQsqaUBKTNV-1">
          <mxGeometry x="3074" y="1773" width="40" height="30" as="geometry" />
        </mxCell>
        <mxCell id="1N1WW0Ei132FlfIsPOHH-244" value="否" style="text;html=1;align=center;verticalAlign=middle;resizable=0;points=[];autosize=1;strokeColor=none;fillColor=none;" vertex="1" parent="WIyWlLk6GJQsqaUBKTNV-1">
          <mxGeometry x="3136" y="1724" width="40" height="30" as="geometry" />
        </mxCell>
        <mxCell id="1N1WW0Ei132FlfIsPOHH-249" value="否" style="text;html=1;align=center;verticalAlign=middle;resizable=0;points=[];autosize=1;strokeColor=none;fillColor=none;" vertex="1" parent="WIyWlLk6GJQsqaUBKTNV-1">
          <mxGeometry x="1109.8600000000001" y="1671.5" width="40" height="30" as="geometry" />
        </mxCell>
        <mxCell id="1N1WW0Ei132FlfIsPOHH-250" value="否" style="text;html=1;align=center;verticalAlign=middle;resizable=0;points=[];autosize=1;strokeColor=none;fillColor=none;" vertex="1" parent="WIyWlLk6GJQsqaUBKTNV-1">
          <mxGeometry x="1309.8600000000001" y="1404.5" width="40" height="30" as="geometry" />
        </mxCell>
        <mxCell id="1N1WW0Ei132FlfIsPOHH-272" value="是" style="text;html=1;align=center;verticalAlign=middle;resizable=0;points=[];autosize=1;strokeColor=none;fillColor=none;" vertex="1" parent="WIyWlLk6GJQsqaUBKTNV-1">
          <mxGeometry x="1389.8600000000001" y="1326.5" width="40" height="30" as="geometry" />
        </mxCell>
        <mxCell id="1N1WW0Ei132FlfIsPOHH-327" style="edgeStyle=orthogonalEdgeStyle;rounded=0;orthogonalLoop=1;jettySize=auto;html=1;exitX=0.5;exitY=1;exitDx=0;exitDy=0;entryX=0.5;entryY=0;entryDx=0;entryDy=0;" edge="1" parent="WIyWlLk6GJQsqaUBKTNV-1" source="1N1WW0Ei132FlfIsPOHH-329" target="1N1WW0Ei132FlfIsPOHH-338">
          <mxGeometry relative="1" as="geometry">
            <mxPoint x="1675.8369565217395" y="1508.5000000000002" as="targetPoint" />
          </mxGeometry>
        </mxCell>
        <mxCell id="1N1WW0Ei132FlfIsPOHH-328" style="edgeStyle=orthogonalEdgeStyle;rounded=0;orthogonalLoop=1;jettySize=auto;html=1;exitX=0;exitY=0.5;exitDx=0;exitDy=0;entryX=0.5;entryY=0;entryDx=0;entryDy=0;" edge="1" parent="WIyWlLk6GJQsqaUBKTNV-1" source="1N1WW0Ei132FlfIsPOHH-329" target="1N1WW0Ei132FlfIsPOHH-331">
          <mxGeometry relative="1" as="geometry">
            <Array as="points">
              <mxPoint x="1560.75" y="1427.5" />
              <mxPoint x="1560.75" y="1604.5" />
              <mxPoint x="1675.75" y="1604.5" />
            </Array>
          </mxGeometry>
        </mxCell>
        <mxCell id="1N1WW0Ei132FlfIsPOHH-329" value="设置错误页" style="rhombus;whiteSpace=wrap;html=1;" vertex="1" parent="WIyWlLk6GJQsqaUBKTNV-1">
          <mxGeometry x="1620.75" y="1394.5" width="110" height="65" as="geometry" />
        </mxCell>
        <mxCell id="1N1WW0Ei132FlfIsPOHH-330" style="edgeStyle=orthogonalEdgeStyle;rounded=0;orthogonalLoop=1;jettySize=auto;html=1;exitX=0.5;exitY=1;exitDx=0;exitDy=0;entryX=0.5;entryY=0;entryDx=0;entryDy=0;" edge="1" parent="WIyWlLk6GJQsqaUBKTNV-1" source="1N1WW0Ei132FlfIsPOHH-331" target="1N1WW0Ei132FlfIsPOHH-347">
          <mxGeometry relative="1" as="geometry" />
        </mxCell>
        <mxCell id="1N1WW0Ei132FlfIsPOHH-359" style="edgeStyle=orthogonalEdgeStyle;rounded=0;orthogonalLoop=1;jettySize=auto;html=1;exitX=0;exitY=0.5;exitDx=0;exitDy=0;entryX=0.5;entryY=0;entryDx=0;entryDy=0;" edge="1" parent="WIyWlLk6GJQsqaUBKTNV-1" source="1N1WW0Ei132FlfIsPOHH-331" target="1N1WW0Ei132FlfIsPOHH-333">
          <mxGeometry relative="1" as="geometry">
            <Array as="points">
              <mxPoint x="1559.8600000000001" y="1656.5" />
              <mxPoint x="1559.8600000000001" y="1846.5" />
              <mxPoint x="1675.8600000000001" y="1846.5" />
            </Array>
          </mxGeometry>
        </mxCell>
        <mxCell id="1N1WW0Ei132FlfIsPOHH-331" value="设置状态码" style="rhombus;whiteSpace=wrap;html=1;" vertex="1" parent="WIyWlLk6GJQsqaUBKTNV-1">
          <mxGeometry x="1620.75" y="1624.5" width="110" height="65" as="geometry" />
        </mxCell>
        <mxCell id="1N1WW0Ei132FlfIsPOHH-332" style="edgeStyle=orthogonalEdgeStyle;rounded=0;orthogonalLoop=1;jettySize=auto;html=1;exitX=0.5;exitY=1;exitDx=0;exitDy=0;entryX=0.5;entryY=0;entryDx=0;entryDy=0;" edge="1" parent="WIyWlLk6GJQsqaUBKTNV-1" source="1N1WW0Ei132FlfIsPOHH-333" target="1N1WW0Ei132FlfIsPOHH-343">
          <mxGeometry relative="1" as="geometry" />
        </mxCell>
        <mxCell id="1N1WW0Ei132FlfIsPOHH-366" style="edgeStyle=orthogonalEdgeStyle;rounded=0;orthogonalLoop=1;jettySize=auto;html=1;exitX=0;exitY=0.5;exitDx=0;exitDy=0;entryX=0.5;entryY=0;entryDx=0;entryDy=0;" edge="1" parent="WIyWlLk6GJQsqaUBKTNV-1" source="1N1WW0Ei132FlfIsPOHH-333" target="1N1WW0Ei132FlfIsPOHH-365">
          <mxGeometry relative="1" as="geometry">
            <Array as="points">
              <mxPoint x="1559.8600000000001" y="1907.5" />
              <mxPoint x="1559.8600000000001" y="2096.5" />
              <mxPoint x="1238.8600000000001" y="2096.5" />
            </Array>
          </mxGeometry>
        </mxCell>
        <mxCell id="1N1WW0Ei132FlfIsPOHH-333" value="设置重定向" style="rhombus;whiteSpace=wrap;html=1;" vertex="1" parent="WIyWlLk6GJQsqaUBKTNV-1">
          <mxGeometry x="1620.75" y="1874.5" width="110" height="65" as="geometry" />
        </mxCell>
        <mxCell id="1N1WW0Ei132FlfIsPOHH-334" value="否" style="text;html=1;align=center;verticalAlign=middle;resizable=0;points=[];autosize=1;strokeColor=none;fillColor=none;" vertex="1" parent="WIyWlLk6GJQsqaUBKTNV-1">
          <mxGeometry x="1579.8600000000001" y="1394.5" width="40" height="30" as="geometry" />
        </mxCell>
        <mxCell id="1N1WW0Ei132FlfIsPOHH-336" style="edgeStyle=orthogonalEdgeStyle;rounded=0;orthogonalLoop=1;jettySize=auto;html=1;exitX=0.5;exitY=1;exitDx=0;exitDy=0;entryX=0.5;entryY=0;entryDx=0;entryDy=0;" edge="1" parent="WIyWlLk6GJQsqaUBKTNV-1" source="1N1WW0Ei132FlfIsPOHH-338" target="1N1WW0Ei132FlfIsPOHH-331">
          <mxGeometry relative="1" as="geometry" />
        </mxCell>
        <mxCell id="1N1WW0Ei132FlfIsPOHH-337" style="edgeStyle=orthogonalEdgeStyle;rounded=0;orthogonalLoop=1;jettySize=auto;html=1;exitX=1;exitY=0.5;exitDx=0;exitDy=0;entryX=1;entryY=0.5;entryDx=0;entryDy=0;" edge="1" parent="WIyWlLk6GJQsqaUBKTNV-1" source="1N1WW0Ei132FlfIsPOHH-338" target="1N1WW0Ei132FlfIsPOHH-364">
          <mxGeometry relative="1" as="geometry">
            <mxPoint x="1800.75" y="2117.5" as="targetPoint" />
            <Array as="points">
              <mxPoint x="1769.8600000000001" y="1531.5" />
              <mxPoint x="1769.8600000000001" y="2139.5" />
            </Array>
          </mxGeometry>
        </mxCell>
        <mxCell id="1N1WW0Ei132FlfIsPOHH-338" value="响应报文命中" style="rhombus;whiteSpace=wrap;html=1;" vertex="1" parent="WIyWlLk6GJQsqaUBKTNV-1">
          <mxGeometry x="1620.75" y="1498.5" width="110" height="65" as="geometry" />
        </mxCell>
        <mxCell id="1N1WW0Ei132FlfIsPOHH-339" value="是" style="text;html=1;align=center;verticalAlign=middle;resizable=0;points=[];autosize=1;strokeColor=none;fillColor=none;" vertex="1" parent="WIyWlLk6GJQsqaUBKTNV-1">
          <mxGeometry x="1670.75" y="1459.5" width="40" height="30" as="geometry" />
        </mxCell>
        <mxCell id="1N1WW0Ei132FlfIsPOHH-342" style="edgeStyle=orthogonalEdgeStyle;rounded=0;orthogonalLoop=1;jettySize=auto;html=1;exitX=1;exitY=0.5;exitDx=0;exitDy=0;entryX=1;entryY=0.5;entryDx=0;entryDy=0;" edge="1" parent="WIyWlLk6GJQsqaUBKTNV-1" source="1N1WW0Ei132FlfIsPOHH-343" target="1N1WW0Ei132FlfIsPOHH-364">
          <mxGeometry relative="1" as="geometry">
            <mxPoint x="1800.75" y="2117.5" as="targetPoint" />
            <Array as="points">
              <mxPoint x="1769.8600000000001" y="2011.5" />
              <mxPoint x="1769.8600000000001" y="2139.5" />
            </Array>
          </mxGeometry>
        </mxCell>
        <mxCell id="1N1WW0Ei132FlfIsPOHH-367" style="edgeStyle=orthogonalEdgeStyle;rounded=0;orthogonalLoop=1;jettySize=auto;html=1;exitX=0.5;exitY=1;exitDx=0;exitDy=0;entryX=0.5;entryY=0;entryDx=0;entryDy=0;" edge="1" parent="WIyWlLk6GJQsqaUBKTNV-1" source="1N1WW0Ei132FlfIsPOHH-343" target="1N1WW0Ei132FlfIsPOHH-365">
          <mxGeometry relative="1" as="geometry">
            <Array as="points">
              <mxPoint x="1675.8600000000001" y="2096.5" />
              <mxPoint x="1238.8600000000001" y="2096.5" />
            </Array>
          </mxGeometry>
        </mxCell>
        <mxCell id="1N1WW0Ei132FlfIsPOHH-343" value="重定向命中" style="rhombus;whiteSpace=wrap;html=1;" vertex="1" parent="WIyWlLk6GJQsqaUBKTNV-1">
          <mxGeometry x="1620.75" y="1978.5" width="110" height="65" as="geometry" />
        </mxCell>
        <mxCell id="1N1WW0Ei132FlfIsPOHH-344" value="是" style="text;html=1;align=center;verticalAlign=middle;resizable=0;points=[];autosize=1;strokeColor=none;fillColor=none;" vertex="1" parent="WIyWlLk6GJQsqaUBKTNV-1">
          <mxGeometry x="1670.75" y="1938.5" width="40" height="30" as="geometry" />
        </mxCell>
        <mxCell id="1N1WW0Ei132FlfIsPOHH-345" style="edgeStyle=orthogonalEdgeStyle;rounded=0;orthogonalLoop=1;jettySize=auto;html=1;exitX=0.5;exitY=1;exitDx=0;exitDy=0;entryX=0.5;entryY=0;entryDx=0;entryDy=0;" edge="1" parent="WIyWlLk6GJQsqaUBKTNV-1" source="1N1WW0Ei132FlfIsPOHH-347" target="1N1WW0Ei132FlfIsPOHH-333">
          <mxGeometry relative="1" as="geometry" />
        </mxCell>
        <mxCell id="1N1WW0Ei132FlfIsPOHH-346" style="edgeStyle=orthogonalEdgeStyle;rounded=0;orthogonalLoop=1;jettySize=auto;html=1;exitX=1;exitY=0.5;exitDx=0;exitDy=0;entryX=1;entryY=0.5;entryDx=0;entryDy=0;" edge="1" parent="WIyWlLk6GJQsqaUBKTNV-1" source="1N1WW0Ei132FlfIsPOHH-347" target="1N1WW0Ei132FlfIsPOHH-364">
          <mxGeometry relative="1" as="geometry">
            <mxPoint x="1800.75" y="2117.5" as="targetPoint" />
            <Array as="points">
              <mxPoint x="1769.8600000000001" y="1765.5" />
              <mxPoint x="1769.8600000000001" y="2139.5" />
            </Array>
          </mxGeometry>
        </mxCell>
        <mxCell id="1N1WW0Ei132FlfIsPOHH-347" value="状态码命中" style="rhombus;whiteSpace=wrap;html=1;" vertex="1" parent="WIyWlLk6GJQsqaUBKTNV-1">
          <mxGeometry x="1620.75" y="1733.5" width="110" height="65" as="geometry" />
        </mxCell>
        <mxCell id="1N1WW0Ei132FlfIsPOHH-348" value="是" style="text;html=1;align=center;verticalAlign=middle;resizable=0;points=[];autosize=1;strokeColor=none;fillColor=none;" vertex="1" parent="WIyWlLk6GJQsqaUBKTNV-1">
          <mxGeometry x="1668.25" y="1689.5" width="40" height="30" as="geometry" />
        </mxCell>
        <mxCell id="1N1WW0Ei132FlfIsPOHH-349" value="否" style="text;html=1;align=center;verticalAlign=middle;resizable=0;points=[];autosize=1;strokeColor=none;fillColor=none;" vertex="1" parent="WIyWlLk6GJQsqaUBKTNV-1">
          <mxGeometry x="1590.75" y="1628.5" width="40" height="30" as="geometry" />
        </mxCell>
        <mxCell id="1N1WW0Ei132FlfIsPOHH-350" value="是" style="text;html=1;align=center;verticalAlign=middle;resizable=0;points=[];autosize=1;strokeColor=none;fillColor=none;" vertex="1" parent="WIyWlLk6GJQsqaUBKTNV-1">
          <mxGeometry x="1730.75" y="1506.5" width="40" height="30" as="geometry" />
        </mxCell>
        <mxCell id="1N1WW0Ei132FlfIsPOHH-351" value="否" style="text;html=1;align=center;verticalAlign=middle;resizable=0;points=[];autosize=1;strokeColor=none;fillColor=none;" vertex="1" parent="WIyWlLk6GJQsqaUBKTNV-1">
          <mxGeometry x="1580.75" y="1879.5" width="40" height="30" as="geometry" />
        </mxCell>
        <mxCell id="1N1WW0Ei132FlfIsPOHH-352" value="否" style="text;html=1;align=center;verticalAlign=middle;resizable=0;points=[];autosize=1;strokeColor=none;fillColor=none;" vertex="1" parent="WIyWlLk6GJQsqaUBKTNV-1">
          <mxGeometry x="1670.75" y="1563.5" width="40" height="30" as="geometry" />
        </mxCell>
        <mxCell id="1N1WW0Ei132FlfIsPOHH-353" value="否" style="text;html=1;align=center;verticalAlign=middle;resizable=0;points=[];autosize=1;strokeColor=none;fillColor=none;" vertex="1" parent="WIyWlLk6GJQsqaUBKTNV-1">
          <mxGeometry x="1670.75" y="1798.5" width="40" height="30" as="geometry" />
        </mxCell>
        <mxCell id="1N1WW0Ei132FlfIsPOHH-354" value="否" style="text;html=1;align=center;verticalAlign=middle;resizable=0;points=[];autosize=1;strokeColor=none;fillColor=none;" vertex="1" parent="WIyWlLk6GJQsqaUBKTNV-1">
          <mxGeometry x="1670.75" y="2044.5" width="40" height="30" as="geometry" />
        </mxCell>
        <mxCell id="1N1WW0Ei132FlfIsPOHH-355" value="是" style="text;html=1;align=center;verticalAlign=middle;resizable=0;points=[];autosize=1;strokeColor=none;fillColor=none;" vertex="1" parent="WIyWlLk6GJQsqaUBKTNV-1">
          <mxGeometry x="1729.8600000000001" y="1736.5" width="40" height="30" as="geometry" />
        </mxCell>
        <mxCell id="1N1WW0Ei132FlfIsPOHH-356" value="是" style="text;html=1;align=center;verticalAlign=middle;resizable=0;points=[];autosize=1;strokeColor=none;fillColor=none;" vertex="1" parent="WIyWlLk6GJQsqaUBKTNV-1">
          <mxGeometry x="1729.8600000000001" y="1984.5" width="40" height="30" as="geometry" />
        </mxCell>
        <mxCell id="1N1WW0Ei132FlfIsPOHH-496" style="edgeStyle=orthogonalEdgeStyle;rounded=0;orthogonalLoop=1;jettySize=auto;html=1;exitX=0.5;exitY=1;exitDx=0;exitDy=0;entryX=0.5;entryY=0;entryDx=0;entryDy=0;" edge="1" parent="WIyWlLk6GJQsqaUBKTNV-1" source="1N1WW0Ei132FlfIsPOHH-363" target="1N1WW0Ei132FlfIsPOHH-439">
          <mxGeometry relative="1" as="geometry" />
        </mxCell>
        <mxCell id="1N1WW0Ei132FlfIsPOHH-363" value="动态编码发送" style="rounded=0;whiteSpace=wrap;html=1;fillColor=#cce5ff;strokeColor=#36393d;" vertex="1" parent="WIyWlLk6GJQsqaUBKTNV-1">
          <mxGeometry x="816.8000000000001" y="1285" width="120" height="60" as="geometry" />
        </mxCell>
        <mxCell id="1N1WW0Ei132FlfIsPOHH-364" value="payload拦截成功" style="rounded=1;whiteSpace=wrap;html=1;fillColor=#fff2cc;strokeColor=#d6b656;" vertex="1" parent="WIyWlLk6GJQsqaUBKTNV-1">
          <mxGeometry x="1399.3600000000001" y="2117.5" width="100" height="43" as="geometry" />
        </mxCell>
        <mxCell id="1N1WW0Ei132FlfIsPOHH-365" value="payload拦截失败" style="rounded=1;whiteSpace=wrap;html=1;fillColor=#fff2cc;strokeColor=#d6b656;" vertex="1" parent="WIyWlLk6GJQsqaUBKTNV-1">
          <mxGeometry x="1188.8600000000001" y="2117.5" width="100" height="43" as="geometry" />
        </mxCell>
        <mxCell id="1N1WW0Ei132FlfIsPOHH-374" value="静态编码发送结束" style="text;html=1;align=center;verticalAlign=middle;resizable=0;points=[];autosize=1;strokeColor=none;fillColor=none;" vertex="1" parent="WIyWlLk6GJQsqaUBKTNV-1">
          <mxGeometry x="740.86" y="1220" width="120" height="30" as="geometry" />
        </mxCell>
        <mxCell id="1N1WW0Ei132FlfIsPOHH-376" style="edgeStyle=orthogonalEdgeStyle;rounded=0;orthogonalLoop=1;jettySize=auto;html=1;exitX=0.5;exitY=1;exitDx=0;exitDy=0;entryX=0.5;entryY=0;entryDx=0;entryDy=0;" edge="1" parent="WIyWlLk6GJQsqaUBKTNV-1" source="1N1WW0Ei132FlfIsPOHH-375" target="1N1WW0Ei132FlfIsPOHH-363">
          <mxGeometry relative="1" as="geometry" />
        </mxCell>
        <mxCell id="1N1WW0Ei132FlfIsPOHH-515" style="edgeStyle=orthogonalEdgeStyle;rounded=0;orthogonalLoop=1;jettySize=auto;html=1;exitX=0;exitY=0.5;exitDx=0;exitDy=0;entryX=0;entryY=0.5;entryDx=0;entryDy=0;" edge="1" parent="WIyWlLk6GJQsqaUBKTNV-1" source="1N1WW0Ei132FlfIsPOHH-375" target="1N1WW0Ei132FlfIsPOHH-199">
          <mxGeometry relative="1" as="geometry">
            <Array as="points">
              <mxPoint x="739.86" y="1155" />
              <mxPoint x="739.86" y="660" />
            </Array>
          </mxGeometry>
        </mxCell>
        <mxCell id="1N1WW0Ei132FlfIsPOHH-375" value="收集静态编码拦截成功的payload" style="rounded=0;whiteSpace=wrap;html=1;" vertex="1" parent="WIyWlLk6GJQsqaUBKTNV-1">
          <mxGeometry x="820.41" y="1124.5" width="120" height="60" as="geometry" />
        </mxCell>
        <mxCell id="1N1WW0Ei132FlfIsPOHH-498" style="edgeStyle=orthogonalEdgeStyle;rounded=0;orthogonalLoop=1;jettySize=auto;html=1;exitX=0.5;exitY=1;exitDx=0;exitDy=0;entryX=0.5;entryY=0;entryDx=0;entryDy=0;" edge="1" parent="WIyWlLk6GJQsqaUBKTNV-1" source="1N1WW0Ei132FlfIsPOHH-439" target="1N1WW0Ei132FlfIsPOHH-497">
          <mxGeometry relative="1" as="geometry" />
        </mxCell>
        <mxCell id="1N1WW0Ei132FlfIsPOHH-439" value="遍历payload" style="rhombus;whiteSpace=wrap;html=1;" vertex="1" parent="WIyWlLk6GJQsqaUBKTNV-1">
          <mxGeometry x="825.41" y="1405" width="90" height="80" as="geometry" />
        </mxCell>
        <mxCell id="1N1WW0Ei132FlfIsPOHH-532" style="edgeStyle=orthogonalEdgeStyle;rounded=0;orthogonalLoop=1;jettySize=auto;html=1;exitX=0.5;exitY=1;exitDx=0;exitDy=0;entryX=0.5;entryY=0;entryDx=0;entryDy=0;" edge="1" parent="WIyWlLk6GJQsqaUBKTNV-1" source="1N1WW0Ei132FlfIsPOHH-443" target="1N1WW0Ei132FlfIsPOHH-531">
          <mxGeometry relative="1" as="geometry" />
        </mxCell>
        <mxCell id="1N1WW0Ei132FlfIsPOHH-443" value="发送payload" style="rounded=0;whiteSpace=wrap;html=1;" vertex="1" parent="WIyWlLk6GJQsqaUBKTNV-1">
          <mxGeometry x="784.41" y="1763.5" width="172" height="39.5" as="geometry" />
        </mxCell>
        <mxCell id="1N1WW0Ei132FlfIsPOHH-528" style="edgeStyle=orthogonalEdgeStyle;rounded=0;orthogonalLoop=1;jettySize=auto;html=1;exitX=0.5;exitY=1;exitDx=0;exitDy=0;entryX=0.5;entryY=0;entryDx=0;entryDy=0;" edge="1" parent="WIyWlLk6GJQsqaUBKTNV-1" source="1N1WW0Ei132FlfIsPOHH-497" target="1N1WW0Ei132FlfIsPOHH-525">
          <mxGeometry relative="1" as="geometry" />
        </mxCell>
        <mxCell id="1N1WW0Ei132FlfIsPOHH-497" value="遍历编码" style="rhombus;whiteSpace=wrap;html=1;" vertex="1" parent="WIyWlLk6GJQsqaUBKTNV-1">
          <mxGeometry x="825.41" y="1525" width="90" height="80" as="geometry" />
        </mxCell>
        <mxCell id="1N1WW0Ei132FlfIsPOHH-512" style="edgeStyle=orthogonalEdgeStyle;rounded=0;orthogonalLoop=1;jettySize=auto;html=1;exitX=0.5;exitY=1;exitDx=0;exitDy=0;entryX=0.5;entryY=0;entryDx=0;entryDy=0;" edge="1" parent="WIyWlLk6GJQsqaUBKTNV-1" source="1N1WW0Ei132FlfIsPOHH-503" target="1N1WW0Ei132FlfIsPOHH-375">
          <mxGeometry relative="1" as="geometry">
            <mxPoint x="880.1757894736842" y="1100" as="targetPoint" />
            <Array as="points">
              <mxPoint x="879.86" y="1110" />
            </Array>
          </mxGeometry>
        </mxCell>
        <mxCell id="1N1WW0Ei132FlfIsPOHH-514" style="edgeStyle=orthogonalEdgeStyle;rounded=0;orthogonalLoop=1;jettySize=auto;html=1;exitX=0;exitY=0.5;exitDx=0;exitDy=0;entryX=0;entryY=0.5;entryDx=0;entryDy=0;" edge="1" parent="WIyWlLk6GJQsqaUBKTNV-1" source="1N1WW0Ei132FlfIsPOHH-503" target="1N1WW0Ei132FlfIsPOHH-199">
          <mxGeometry relative="1" as="geometry">
            <Array as="points">
              <mxPoint x="739.86" y="1045" />
              <mxPoint x="739.86" y="660" />
            </Array>
          </mxGeometry>
        </mxCell>
        <mxCell id="1N1WW0Ei132FlfIsPOHH-503" value="拦截成功" style="rhombus;whiteSpace=wrap;html=1;" vertex="1" parent="WIyWlLk6GJQsqaUBKTNV-1">
          <mxGeometry x="827.36" y="1022" width="105" height="46" as="geometry" />
        </mxCell>
        <mxCell id="1N1WW0Ei132FlfIsPOHH-506" value="" style="edgeStyle=orthogonalEdgeStyle;rounded=0;orthogonalLoop=1;jettySize=auto;html=1;exitX=0.5;exitY=1;exitDx=0;exitDy=0;entryX=0.5;entryY=0;entryDx=0;entryDy=0;" edge="1" parent="WIyWlLk6GJQsqaUBKTNV-1" source="1N1WW0Ei132FlfIsPOHH-201" target="1N1WW0Ei132FlfIsPOHH-505">
          <mxGeometry relative="1" as="geometry">
            <mxPoint x="881.86" y="1000" as="targetPoint" />
            <mxPoint x="879.86" y="890" as="sourcePoint" />
          </mxGeometry>
        </mxCell>
        <mxCell id="1N1WW0Ei132FlfIsPOHH-511" style="edgeStyle=orthogonalEdgeStyle;rounded=0;orthogonalLoop=1;jettySize=auto;html=1;exitX=1;exitY=0.5;exitDx=0;exitDy=0;entryX=0;entryY=0.5;entryDx=0;entryDy=0;" edge="1" parent="WIyWlLk6GJQsqaUBKTNV-1" source="1N1WW0Ei132FlfIsPOHH-505" target="1N1WW0Ei132FlfIsPOHH-507">
          <mxGeometry relative="1" as="geometry" />
        </mxCell>
        <mxCell id="1N1WW0Ei132FlfIsPOHH-505" value="处理响应" style="rounded=0;whiteSpace=wrap;html=1;" vertex="1" parent="WIyWlLk6GJQsqaUBKTNV-1">
          <mxGeometry x="825.41" y="929" width="110" height="50" as="geometry" />
        </mxCell>
        <mxCell id="1N1WW0Ei132FlfIsPOHH-509" style="edgeStyle=orthogonalEdgeStyle;rounded=0;orthogonalLoop=1;jettySize=auto;html=1;exitX=0.5;exitY=1;exitDx=0;exitDy=0;entryX=0.5;entryY=0;entryDx=0;entryDy=0;" edge="1" parent="WIyWlLk6GJQsqaUBKTNV-1" source="1N1WW0Ei132FlfIsPOHH-507" target="1N1WW0Ei132FlfIsPOHH-205">
          <mxGeometry relative="1" as="geometry" />
        </mxCell>
        <mxCell id="1N1WW0Ei132FlfIsPOHH-507" value="处理响应" style="rounded=0;whiteSpace=wrap;html=1;" vertex="1" parent="WIyWlLk6GJQsqaUBKTNV-1">
          <mxGeometry x="1265.8600000000001" y="1240" width="110" height="50" as="geometry" />
        </mxCell>
        <mxCell id="1N1WW0Ei132FlfIsPOHH-513" value="是" style="text;html=1;align=center;verticalAlign=middle;resizable=0;points=[];autosize=1;strokeColor=none;fillColor=none;" vertex="1" parent="WIyWlLk6GJQsqaUBKTNV-1">
          <mxGeometry x="875.41" y="1080" width="40" height="30" as="geometry" />
        </mxCell>
        <mxCell id="1N1WW0Ei132FlfIsPOHH-518" style="edgeStyle=orthogonalEdgeStyle;rounded=0;orthogonalLoop=1;jettySize=auto;html=1;exitX=0.5;exitY=1;exitDx=0;exitDy=0;entryX=0.5;entryY=0;entryDx=0;entryDy=0;" edge="1" parent="WIyWlLk6GJQsqaUBKTNV-1" source="1N1WW0Ei132FlfIsPOHH-516" target="1N1WW0Ei132FlfIsPOHH-201">
          <mxGeometry relative="1" as="geometry" />
        </mxCell>
        <mxCell id="1N1WW0Ei132FlfIsPOHH-519" style="edgeStyle=orthogonalEdgeStyle;rounded=0;orthogonalLoop=1;jettySize=auto;html=1;exitX=0;exitY=0.5;exitDx=0;exitDy=0;entryX=0;entryY=0.5;entryDx=0;entryDy=0;" edge="1" parent="WIyWlLk6GJQsqaUBKTNV-1" source="1N1WW0Ei132FlfIsPOHH-516" target="1N1WW0Ei132FlfIsPOHH-199">
          <mxGeometry relative="1" as="geometry" />
        </mxCell>
        <mxCell id="1N1WW0Ei132FlfIsPOHH-516" value="目标可达？&lt;div&gt;不带payload&lt;br&gt;返回响应体&lt;/div&gt;" style="rhombus;whiteSpace=wrap;html=1;" vertex="1" parent="WIyWlLk6GJQsqaUBKTNV-1">
          <mxGeometry x="811.41" y="719" width="138" height="93" as="geometry" />
        </mxCell>
        <mxCell id="1N1WW0Ei132FlfIsPOHH-520" value="是" style="text;html=1;align=center;verticalAlign=middle;resizable=0;points=[];autosize=1;strokeColor=none;fillColor=none;" vertex="1" parent="WIyWlLk6GJQsqaUBKTNV-1">
          <mxGeometry x="875.41" y="808" width="40" height="30" as="geometry" />
        </mxCell>
        <mxCell id="1N1WW0Ei132FlfIsPOHH-521" value="否" style="text;html=1;align=center;verticalAlign=middle;resizable=0;points=[];autosize=1;strokeColor=none;fillColor=none;" vertex="1" parent="WIyWlLk6GJQsqaUBKTNV-1">
          <mxGeometry x="787.36" y="734" width="40" height="30" as="geometry" />
        </mxCell>
        <mxCell id="1N1WW0Ei132FlfIsPOHH-529" style="edgeStyle=orthogonalEdgeStyle;rounded=0;orthogonalLoop=1;jettySize=auto;html=1;exitX=0.5;exitY=1;exitDx=0;exitDy=0;entryX=0.5;entryY=0;entryDx=0;entryDy=0;" edge="1" parent="WIyWlLk6GJQsqaUBKTNV-1" source="1N1WW0Ei132FlfIsPOHH-525" target="1N1WW0Ei132FlfIsPOHH-443">
          <mxGeometry relative="1" as="geometry" />
        </mxCell>
        <mxCell id="1N1WW0Ei132FlfIsPOHH-530" style="edgeStyle=orthogonalEdgeStyle;rounded=0;orthogonalLoop=1;jettySize=auto;html=1;exitX=0;exitY=0.5;exitDx=0;exitDy=0;entryX=0;entryY=0.5;entryDx=0;entryDy=0;" edge="1" parent="WIyWlLk6GJQsqaUBKTNV-1" source="1N1WW0Ei132FlfIsPOHH-525" target="1N1WW0Ei132FlfIsPOHH-497">
          <mxGeometry relative="1" as="geometry" />
        </mxCell>
        <mxCell id="1N1WW0Ei132FlfIsPOHH-525" value="目标可达？&lt;div&gt;不带payload&lt;br&gt;返回响应体&lt;/div&gt;" style="rhombus;whiteSpace=wrap;html=1;" vertex="1" parent="WIyWlLk6GJQsqaUBKTNV-1">
          <mxGeometry x="802.41" y="1630.5" width="138" height="93" as="geometry" />
        </mxCell>
        <mxCell id="1N1WW0Ei132FlfIsPOHH-526" value="是" style="text;html=1;align=center;verticalAlign=middle;resizable=0;points=[];autosize=1;strokeColor=none;fillColor=none;" vertex="1" parent="WIyWlLk6GJQsqaUBKTNV-1">
          <mxGeometry x="862.8000000000001" y="1716" width="40" height="30" as="geometry" />
        </mxCell>
        <mxCell id="1N1WW0Ei132FlfIsPOHH-527" value="否" style="text;html=1;align=center;verticalAlign=middle;resizable=0;points=[];autosize=1;strokeColor=none;fillColor=none;" vertex="1" parent="WIyWlLk6GJQsqaUBKTNV-1">
          <mxGeometry x="778.8599999999998" y="1645.5" width="40" height="30" as="geometry" />
        </mxCell>
        <mxCell id="1N1WW0Ei132FlfIsPOHH-533" style="edgeStyle=orthogonalEdgeStyle;rounded=0;orthogonalLoop=1;jettySize=auto;html=1;exitX=1;exitY=0.5;exitDx=0;exitDy=0;entryX=0;entryY=0.5;entryDx=0;entryDy=0;" edge="1" parent="WIyWlLk6GJQsqaUBKTNV-1" source="1N1WW0Ei132FlfIsPOHH-531" target="1N1WW0Ei132FlfIsPOHH-507">
          <mxGeometry relative="1" as="geometry" />
        </mxCell>
        <mxCell id="1N1WW0Ei132FlfIsPOHH-536" style="edgeStyle=orthogonalEdgeStyle;rounded=0;orthogonalLoop=1;jettySize=auto;html=1;exitX=0.5;exitY=1;exitDx=0;exitDy=0;entryX=0.5;entryY=0;entryDx=0;entryDy=0;" edge="1" parent="WIyWlLk6GJQsqaUBKTNV-1" source="1N1WW0Ei132FlfIsPOHH-531" target="1N1WW0Ei132FlfIsPOHH-535">
          <mxGeometry relative="1" as="geometry" />
        </mxCell>
        <mxCell id="1N1WW0Ei132FlfIsPOHH-531" value="处理响应" style="rounded=0;whiteSpace=wrap;html=1;" vertex="1" parent="WIyWlLk6GJQsqaUBKTNV-1">
          <mxGeometry x="815.41" y="1833" width="110" height="50" as="geometry" />
        </mxCell>
        <mxCell id="1N1WW0Ei132FlfIsPOHH-534" value="否" style="text;html=1;align=center;verticalAlign=middle;resizable=0;points=[];autosize=1;strokeColor=none;fillColor=none;" vertex="1" parent="WIyWlLk6GJQsqaUBKTNV-1">
          <mxGeometry x="780.86" y="1020" width="40" height="30" as="geometry" />
        </mxCell>
        <mxCell id="1N1WW0Ei132FlfIsPOHH-537" style="edgeStyle=orthogonalEdgeStyle;rounded=0;orthogonalLoop=1;jettySize=auto;html=1;exitX=0;exitY=0.5;exitDx=0;exitDy=0;entryX=0;entryY=0.5;entryDx=0;entryDy=0;" edge="1" parent="WIyWlLk6GJQsqaUBKTNV-1" source="1N1WW0Ei132FlfIsPOHH-535" target="1N1WW0Ei132FlfIsPOHH-439">
          <mxGeometry relative="1" as="geometry">
            <Array as="points">
              <mxPoint x="719.86" y="1943" />
              <mxPoint x="719.86" y="1445" />
            </Array>
          </mxGeometry>
        </mxCell>
        <mxCell id="1N1WW0Ei132FlfIsPOHH-539" style="edgeStyle=orthogonalEdgeStyle;rounded=0;orthogonalLoop=1;jettySize=auto;html=1;exitX=1;exitY=0.5;exitDx=0;exitDy=0;entryX=1;entryY=0.5;entryDx=0;entryDy=0;" edge="1" parent="WIyWlLk6GJQsqaUBKTNV-1" source="1N1WW0Ei132FlfIsPOHH-535" target="1N1WW0Ei132FlfIsPOHH-497">
          <mxGeometry relative="1" as="geometry">
            <Array as="points">
              <mxPoint x="979.86" y="1943" />
              <mxPoint x="979.86" y="1565" />
            </Array>
          </mxGeometry>
        </mxCell>
        <mxCell id="1N1WW0Ei132FlfIsPOHH-535" value="拦截成功" style="rhombus;whiteSpace=wrap;html=1;" vertex="1" parent="WIyWlLk6GJQsqaUBKTNV-1">
          <mxGeometry x="817.91" y="1920" width="105" height="46" as="geometry" />
        </mxCell>
        <mxCell id="1N1WW0Ei132FlfIsPOHH-538" value="否" style="text;html=1;align=center;verticalAlign=middle;resizable=0;points=[];autosize=1;strokeColor=none;fillColor=none;" vertex="1" parent="WIyWlLk6GJQsqaUBKTNV-1">
          <mxGeometry x="762.41" y="1910" width="40" height="30" as="geometry" />
        </mxCell>
        <mxCell id="1N1WW0Ei132FlfIsPOHH-540" value="是" style="text;html=1;align=center;verticalAlign=middle;resizable=0;points=[];autosize=1;strokeColor=none;fillColor=none;" vertex="1" parent="WIyWlLk6GJQsqaUBKTNV-1">
          <mxGeometry x="932.36" y="1910" width="40" height="30" as="geometry" />
        </mxCell>
      </root>
    </mxGraphModel>
  </diagram>
</mxfile>
